<?xml version="1.0" encoding="utf-8"?>
<!-- Generator: Adobe Illustrator 23.0.0, SVG Export Plug-In . SVG Version: 6.00 Build 0)  -->
<svg version="1.1" id="Layer_1" xmlns="http://www.w3.org/2000/svg" xmlns:xlink="http://www.w3.org/1999/xlink" x="0px" y="0px"
	 viewBox="0 0 100 100" style="enable-background:new 0 0 100 100;" xml:space="preserve">
<style type="text/css">
	.st0{fill:#4244FF;}
	.st1{fill:#FFFFFF;}
</style>
<g>
	<rect x="0.5" y="0.5" class="st0" width="99" height="99"/>
	<path class="st0" d="M99,1v98H1V1H99 M100,0H0v100h100V0L100,0z"/>
</g>
<g>
	<rect x="34.5" y="38.5" class="st1" width="35" height="3"/>
	<path class="st1" d="M69,39v2H35v-2H69 M70,38H34v4h36V38L70,38z"/>
</g>
<g>
	
		<rect x="64.52" y="26.46" transform="matrix(0.6747 -0.7381 0.7381 0.6747 -4.6442 60.2494)" class="st1" width="3" height="17.87"/>
	<path class="st1" d="M60.47,28.97l12.45,11.38l-1.35,1.48L59.12,30.44L60.47,28.97 M60.41,27.55l-2.7,2.95l13.93,12.73l2.7-2.95
		L60.41,27.55L60.41,27.55z"/>
</g>
<g>
	
		<rect x="57.25" y="44.36" transform="matrix(0.7071 -0.7071 0.7071 0.7071 -13.0569 60.1998)" class="st1" width="17.78" height="3"/>
	<path class="st1" d="M71.36,39.22l1.41,1.41L60.91,52.5l-1.41-1.41L71.36,39.22 M71.36,37.81L58.09,51.09l2.83,2.83l13.28-13.28
		L71.36,37.81L71.36,37.81z"/>
</g>
</svg>
