<?xml version="1.0" encoding="utf-8"?>
<!-- Generator: Adobe Illustrator 23.0.0, SVG Export Plug-In . SVG Version: 6.00 Build 0)  -->
<svg version="1.1" id="Layer_1" xmlns="http://www.w3.org/2000/svg" xmlns:xlink="http://www.w3.org/1999/xlink" x="0px" y="0px"
	 viewBox="0 0 100 100" style="enable-background:new 0 0 100 100;" xml:space="preserve">
<style type="text/css">
	.st0{fill:#FFFFFF;}
	.st1{fill:#CCCCCC;}
	.st2{fill:none;}
	.st3{font-family:'MyriadPro-Regular';}
	.st4{font-size:36px;}
	.st5{fill:#E6E6E6;}
	.st6{fill:#B3B3B3;}
</style>
<g>
	<circle class="st0" cx="33" cy="34" r="10.5"/>
	<path class="st1" d="M33,24c5.51,0,10,4.49,10,10s-4.49,10-10,10s-10-4.49-10-10S27.49,24,33,24 M33,23c-6.08,0-11,4.92-11,11
		s4.92,11,11,11s11-4.92,11-11S39.08,23,33,23L33,23z"/>
</g>
<g>
	<circle class="st0" cx="62" cy="34" r="10.5"/>
	<path class="st1" d="M62,24c5.51,0,10,4.49,10,10s-4.49,10-10,10s-10-4.49-10-10S56.49,24,62,24 M62,23c-6.08,0-11,4.92-11,11
		s4.92,11,11,11s11-4.92,11-11S68.08,23,62,23L62,23z"/>
</g>
<g>
	<circle class="st0" cx="33" cy="60" r="10.5"/>
	<path class="st1" d="M33,50c5.51,0,10,4.49,10,10s-4.49,10-10,10s-10-4.49-10-10S27.49,50,33,50 M33,49c-6.08,0-11,4.92-11,11
		s4.92,11,11,11s11-4.92,11-11S39.08,49,33,49L33,49z"/>
</g>
<rect x="51" y="45" class="st2" width="22" height="30"/>
<text transform="matrix(1 0 0 1 51.2725 70.5596)" class="st1 st3 st4">+</text>
<rect x="0" class="st5" width="100" height="100"/>
<g>
	<circle class="st5" cx="35" cy="35" r="10.5"/>
	<path class="st6" d="M35,25c5.51,0,10,4.49,10,10s-4.49,10-10,10s-10-4.49-10-10S29.49,25,35,25 M35,24c-6.08,0-11,4.92-11,11
		s4.92,11,11,11s11-4.92,11-11S41.08,24,35,24L35,24z"/>
</g>
<g>
	<circle class="st5" cx="64" cy="35" r="10.5"/>
	<path class="st6" d="M64,25c5.51,0,10,4.49,10,10s-4.49,10-10,10s-10-4.49-10-10S58.49,25,64,25 M64,24c-6.08,0-11,4.92-11,11
		s4.92,11,11,11s11-4.92,11-11S70.08,24,64,24L64,24z"/>
</g>
<g>
	<circle class="st5" cx="35" cy="61" r="10.5"/>
	<path class="st6" d="M35,51c5.51,0,10,4.49,10,10s-4.49,10-10,10s-10-4.49-10-10S29.49,51,35,51 M35,50c-6.08,0-11,4.92-11,11
		s4.92,11,11,11s11-4.92,11-11S41.08,50,35,50L35,50z"/>
</g>
<rect x="53" y="46" class="st2" width="22" height="30"/>
<text transform="matrix(1 0 0 1 53.2725 71.5596)" class="st6 st3 st4">+</text>
</svg>
