<?xml version="1.0" encoding="utf-8"?>
<!-- Generator: Adobe Illustrator 23.0.0, SVG Export Plug-In . SVG Version: 6.00 Build 0)  -->
<svg version="1.1" id="Layer_1" xmlns="http://www.w3.org/2000/svg" xmlns:xlink="http://www.w3.org/1999/xlink" x="0px" y="0px"
	 viewBox="0 0 200 200" style="enable-background:new 0 0 200 200;" xml:space="preserve">
<style type="text/css">
	.st0{fill:#E6E6E6;}
	.st1{fill:#FFFFFF;}
	.st2{fill:#E6E6E6;stroke:#E6E6E6;stroke-miterlimit:10;}
	.st3{fill:#B3B3B3;}
</style>
<g>
	<rect x="50.5" y="36.5" class="st0" width="99" height="127"/>
	<path d="M149,37v126H51V37H149 M150,36H50v128h100V36L150,36z"/>
</g>
<g>
	<polygon class="st0" points="100.35,7.77 164.04,65.33 36.67,65.34 	"/>
	<path d="M100.35,8.45l31.82,28.76l30.57,27.62l-62.38,0.01l-62.38,0.01l30.56-27.63L100.35,8.45 M100.35,7.1L67.86,36.47
		L35.37,65.84l64.98-0.01l64.98-0.01l-32.49-29.36L100.35,7.1L100.35,7.1z"/>
</g>
<g>
	<rect x="85.5" y="102.5" class="st1" width="26" height="61"/>
	<path d="M111,103v60H86v-60H111 M112,102H85v62h27V102L112,102z"/>
</g>
<g>
	<ellipse class="st0" cx="98.5" cy="102" rx="13" ry="16.5"/>
	<path d="M98.5,86c6.89,0,12.5,7.18,12.5,16s-5.61,16-12.5,16S86,110.82,86,102S91.61,86,98.5,86 M98.5,85C91.04,85,85,92.61,85,102
		s6.04,17,13.5,17s13.5-7.61,13.5-17S105.96,85,98.5,85L98.5,85z"/>
</g>
<g>
	<rect x="86.5" y="103.5" class="st0" width="24" height="60"/>
	<path class="st0" d="M110,104v59H87v-59H110 M111,103H86v61h25V103L111,103z"/>
</g>
<g>
	<ellipse class="st0" cx="100.5" cy="67.5" rx="62" ry="16"/>
	<path class="st0" d="M100.5,52c36.79,0,61.5,8.01,61.5,15.5S137.29,83,100.5,83S39,74.99,39,67.5S63.71,52,100.5,52 M100.5,51
		C65.98,51,38,58.39,38,67.5C38,76.61,65.98,84,100.5,84S163,76.61,163,67.5C163,58.39,135.02,51,100.5,51L100.5,51z"/>
</g>
<g>
	<polygon class="st0" points="36.09,66.94 40.82,63.32 41.59,69.23 	"/>
	<path class="st0" d="M40.44,64.24l0.27,2.1l0.27,2.1l-1.95-0.81l-1.95-0.81l1.68-1.29L40.44,64.24 M41.21,62.4l-3.06,2.34
		l-3.06,2.34l3.55,1.48l3.55,1.48l-0.5-3.82L41.21,62.4L41.21,62.4z"/>
</g>
<g>
	<polygon class="st0" points="161.24,64.27 165.92,68.03 160.33,70.2 	"/>
	<path class="st0" d="M161.61,65.2l1.66,1.34l1.66,1.34l-1.99,0.77l-1.99,0.77l0.32-2.11L161.61,65.2 M160.88,63.34l-0.59,3.82
		l-0.59,3.82l3.6-1.4l3.6-1.4l-3.02-2.42L160.88,63.34L160.88,63.34z"/>
</g>
<rect x="0.5" y="0.5" class="st2" width="199" height="200"/>
<g>
	<rect x="51.5" y="44.5" class="st0" width="99" height="133"/>
	<path class="st3" d="M150,45v132H52V45H150 M151,44H51v134h100V44L151,44z"/>
</g>
<g>
	<polygon class="st0" points="100.35,21.77 164.04,79.33 36.67,79.34 	"/>
	<path class="st3" d="M100.35,22.45l31.82,28.76l30.57,27.62l-62.38,0.01l-62.38,0.01l30.56-27.63L100.35,22.45 M100.35,21.1
		L67.86,50.47L35.37,79.84l64.98-0.01l64.98-0.01l-32.49-29.36L100.35,21.1L100.35,21.1z"/>
</g>
<g>
	<rect x="85.5" y="116.5" class="st3" width="26" height="61"/>
	<path class="st3" d="M111,117v60H86v-60H111 M112,116H85v62h27V116L112,116z"/>
</g>
<g>
	<ellipse class="st0" cx="98.5" cy="116" rx="13" ry="16.5"/>
	<path class="st3" d="M98.5,100c6.89,0,12.5,7.18,12.5,16s-5.61,16-12.5,16S86,124.82,86,116S91.61,100,98.5,100 M98.5,99
		c-7.46,0-13.5,7.61-13.5,17s6.04,17,13.5,17s13.5-7.61,13.5-17S105.96,99,98.5,99L98.5,99z"/>
</g>
<g>
	<rect x="86.5" y="116.5" class="st0" width="24" height="60"/>
	<path class="st0" d="M110,117v59H87v-59H110 M111,116H86v61h25V116L111,116z"/>
</g>
<g>
	<ellipse class="st0" cx="100.5" cy="81.5" rx="62" ry="16"/>
	<path class="st0" d="M100.5,66c36.79,0,61.5,8.01,61.5,15.5S137.29,97,100.5,97S39,88.99,39,81.5S63.71,66,100.5,66 M100.5,65
		C65.98,65,38,72.39,38,81.5S65.98,98,100.5,98S163,90.61,163,81.5S135.02,65,100.5,65L100.5,65z"/>
</g>
<g>
	<polygon class="st0" points="36.09,80.94 40.82,77.32 41.59,83.23 	"/>
	<path class="st0" d="M40.44,78.24l0.27,2.1l0.27,2.1l-1.95-0.81l-1.95-0.81l1.68-1.29L40.44,78.24 M41.21,76.4l-3.06,2.34
		l-3.06,2.34l3.55,1.48l3.55,1.48l-0.5-3.82L41.21,76.4L41.21,76.4z"/>
</g>
<g>
	<polygon class="st0" points="160.04,77.84 166.58,82.38 159.38,85.77 	"/>
	<path class="st0" d="M160.47,78.75l2.56,1.78l2.56,1.78l-2.82,1.33l-2.82,1.33l0.26-3.1L160.47,78.75 M159.62,76.94l-0.4,4.83
		l-0.4,4.83l4.38-2.06l4.38-2.06l-3.98-2.76L159.62,76.94L159.62,76.94z"/>
</g>
<g>
	<polygon class="st0" points="40.91,33.45 76.48,41.61 48.82,65.42 	"/>
	<path class="st0" d="M41.59,34.12l17.08,3.92l16.74,3.84l-13.02,11.2L49.11,64.51l-3.76-15.19L41.59,34.12 M40.23,32.78l4.15,16.77
		l4.15,16.77l14.52-12.49l14.52-12.49l-18.66-4.28L40.23,32.78L40.23,32.78z"/>
</g>
<polygon class="st2" points="46.54,68.83 45.27,63.23 44,57.63 49.48,59.33 54.96,61.03 50.75,64.93 "/>
<polygon class="st2" points="71.54,46.12 70.85,42.4 70.17,38.67 73.73,39.94 77.3,41.21 74.42,43.66 "/>
<polygon class="st2" points="27.28,89.25 21.76,80.18 16.25,71.11 26.86,70.88 37.47,70.64 32.37,79.94 "/>
<polygon class="st2" points="34.04,94.62 29.25,87.26 24.46,79.9 33.23,79.44 42,78.97 38.02,86.8 "/>
<polygon class="st2" points="164.91,88.27 162.26,83.53 159.61,78.78 165.05,78.86 170.48,78.94 167.69,83.61 "/>
</svg>
