<?xml version="1.0" encoding="utf-8"?>
<!-- Generator: Adobe Illustrator 23.0.0, SVG Export Plug-In . SVG Version: 6.00 Build 0)  -->
<svg version="1.1" id="Layer_1" xmlns="http://www.w3.org/2000/svg" xmlns:xlink="http://www.w3.org/1999/xlink" x="0px" y="0px"
	 viewBox="0 0 300 300" style="enable-background:new 0 0 300 300;" xml:space="preserve">
<style type="text/css">
	.st0{fill:#0000FF;stroke:#00FFFF;stroke-width:3;stroke-miterlimit:10;}
	.st1{fill:#00FFFF;stroke:#00FFFF;stroke-width:3;stroke-miterlimit:10;}
	.st2{fill:#0000FF;stroke:#00FFFF;stroke-width:8;stroke-miterlimit:10;}
</style>
<rect x="31.5" y="120.5" class="st0" width="237" height="143"/>
<rect x="58.5" y="166.5" class="st0" width="103" height="44"/>
<rect x="202.5" y="165.5" class="st0" width="46" height="75"/>
<path class="st0" d="M281.17,112.04l-23.63-86.43L40.07,27.82L21.5,100.37c-1.62,3.5-2.63,7.33-2.91,11.36l-0.74,2.89l0.67-0.01
	C18.84,132.28,33.26,146.5,51,146.5c17.95,0,32.5-14.55,32.5-32.5c0-0.01,0-0.02,0-0.02l0.03,0c-0.01,0.34-0.03,0.68-0.03,1.02
	c0,17.95,14.55,32.5,32.5,32.5s32.5-14.55,32.5-32.5c0-0.56-0.01-1.11-0.04-1.66l0.08,0c-0.03,0.55-0.04,1.1-0.04,1.66
	c0,17.95,14.55,32.5,32.5,32.5s32.5-14.55,32.5-32.5c0-0.77-0.04-1.54-0.09-2.3l1.18-0.01c-0.05,0.76-0.09,1.53-0.09,2.31
	c0,17.95,14.55,32.5,32.5,32.5s32.5-14.55,32.5-32.5c0-0.99-0.05-1.98-0.14-2.95L281.17,112.04z"/>
<rect x="31.5" y="120.5" class="st0" width="237" height="143"/>
<rect x="58.5" y="166.5" class="st0" width="103" height="44"/>
<rect x="202.5" y="165.5" class="st0" width="46" height="75"/>
<path class="st0" d="M281.17,112.04l-23.63-86.43L40.07,27.82L21.5,100.37c-1.62,3.5-2.63,7.33-2.91,11.36l-0.74,2.89l0.67-0.01
	C18.84,132.28,33.26,146.5,51,146.5c17.95,0,32.5-14.55,32.5-32.5c0-0.01,0-0.02,0-0.02l0.03,0c-0.01,0.34-0.03,0.68-0.03,1.02
	c0,17.95,14.55,32.5,32.5,32.5s32.5-14.55,32.5-32.5c0-0.56-0.01-1.11-0.04-1.66l0.08,0c-0.03,0.55-0.04,1.1-0.04,1.66
	c0,17.95,14.55,32.5,32.5,32.5s32.5-14.55,32.5-32.5c0-0.77-0.04-1.54-0.09-2.3l1.18-0.01c-0.05,0.76-0.09,1.53-0.09,2.31
	c0,17.95,14.55,32.5,32.5,32.5s32.5-14.55,32.5-32.5c0-0.99-0.05-1.98-0.14-2.95L281.17,112.04z"/>
<rect x="31.5" y="120.5" class="st0" width="237" height="143"/>
<rect x="58.5" y="166.5" class="st0" width="103" height="44"/>
<rect x="202.5" y="165.5" class="st0" width="46" height="75"/>
<path class="st0" d="M281.17,112.04l-23.63-86.43L40.07,27.82L21.5,100.37c-1.62,3.5-2.63,7.33-2.91,11.36l-0.74,2.89l0.67-0.01
	C18.84,132.28,33.26,146.5,51,146.5c17.95,0,32.5-14.55,32.5-32.5c0-0.01,0-0.02,0-0.02l0.03,0c-0.01,0.34-0.03,0.68-0.03,1.02
	c0,17.95,14.55,32.5,32.5,32.5s32.5-14.55,32.5-32.5c0-0.56-0.01-1.11-0.04-1.66l0.08,0c-0.03,0.55-0.04,1.1-0.04,1.66
	c0,17.95,14.55,32.5,32.5,32.5s32.5-14.55,32.5-32.5c0-0.77-0.04-1.54-0.09-2.3l1.18-0.01c-0.05,0.76-0.09,1.53-0.09,2.31
	c0,17.95,14.55,32.5,32.5,32.5s32.5-14.55,32.5-32.5c0-0.99-0.05-1.98-0.14-2.95L281.17,112.04z"/>
<rect x="0.5" y="-0.5" class="st1" width="300" height="300"/>
<rect x="28.5" y="113.5" class="st0" width="237" height="143"/>
<rect x="53.5" y="166.5" class="st1" width="103" height="44"/>
<rect x="197.5" y="165.5" class="st1" width="46" height="75"/>
<path class="st2" d="M279,112l-23.17-78L42.64,36l-18.21,65.47c-1.59,3.15-2.58,6.61-2.85,10.25l-0.73,2.61l0.65-0.01
	c0.32,15.94,14.45,28.78,31.85,28.78c17.6,0,31.86-13.13,31.86-29.33c0-0.01,0-0.01,0-0.02l0.03,0c-0.01,0.31-0.03,0.61-0.03,0.92
	c0,16.2,14.26,29.33,31.86,29.33s31.86-13.13,31.86-29.33c0-0.5-0.01-1-0.04-1.5l0.08,0c-0.03,0.5-0.04,1-0.04,1.5
	c0,16.2,14.26,29.33,31.86,29.33s31.86-13.13,31.86-29.33c0-0.7-0.04-1.39-0.09-2.08l1.16-0.01c-0.05,0.69-0.09,1.38-0.09,2.09
	c0,16.2,14.26,29.33,31.86,29.33s31.86-13.13,31.86-29.33c0-0.9-0.05-1.78-0.14-2.66L279,112z"/>
</svg>
