<?xml version="1.0" encoding="utf-8"?>
<!-- Generator: Adobe Illustrator 23.0.0, SVG Export Plug-In . SVG Version: 6.00 Build 0)  -->
<svg version="1.1" id="Layer_1" xmlns="http://www.w3.org/2000/svg" xmlns:xlink="http://www.w3.org/1999/xlink" x="0px" y="0px"
	 viewBox="0 0 200 200" style="enable-background:new 0 0 200 200;" xml:space="preserve">
<style type="text/css">
	.st0{fill:#E6E6E6;}
	.st1{fill:#999999;}
	.st2{fill:#F2F2F2;}
	.st3{fill:#B3B3B3;}
</style>
<g>
	<ellipse class="st0" cx="103.5" cy="66" rx="29" ry="26.5"/>
	<path class="st1" d="M103.5,41c15.16,0,27.5,11.21,27.5,25s-12.34,25-27.5,25S76,79.79,76,66S88.34,41,103.5,41 M103.5,38
		C86.66,38,73,50.54,73,66s13.66,28,30.5,28S134,81.46,134,66S120.34,38,103.5,38L103.5,38z"/>
</g>
<g>
	<ellipse class="st0" cx="103.5" cy="66" rx="29" ry="26.5"/>
	<path class="st1" d="M103.5,41c15.16,0,27.5,11.21,27.5,25s-12.34,25-27.5,25S76,79.79,76,66S88.34,41,103.5,41 M103.5,38
		C86.66,38,73,50.54,73,66s13.66,28,30.5,28S134,81.46,134,66S120.34,38,103.5,38L103.5,38z"/>
</g>
<g>
	<path class="st0" d="M101.5,154.5c-0.9,0-1.86-0.02-3.03-0.08l-0.7-0.03c-0.99-0.05-1.96-0.13-2.94-0.22l-0.38-0.04
		c-0.88-0.09-1.74-0.2-2.6-0.33l-0.69-0.1c-0.93-0.15-1.85-0.31-2.77-0.5l-0.65-0.14c-0.76-0.16-1.52-0.34-2.27-0.52l-0.71-0.18
		c-0.87-0.23-1.73-0.47-2.58-0.73c-0.21-0.06-0.84-0.27-0.84-0.27c-0.67-0.21-1.33-0.44-1.99-0.67c0,0-0.6-0.21-0.75-0.26
		c-0.79-0.29-1.57-0.61-2.35-0.93c-0.34-0.14-0.67-0.28-1-0.43c-0.57-0.25-1.14-0.51-1.71-0.77c-0.46-0.21-0.91-0.43-1.35-0.65
		c-0.52-0.26-1.04-0.53-1.56-0.8c-0.38-0.2-0.77-0.41-1.15-0.62c-0.46-0.25-0.91-0.52-1.36-0.78c-0.59-0.35-1.18-0.71-1.77-1.08
		c-0.34-0.21-0.68-0.43-1.01-0.65c-0.43-0.28-0.85-0.56-1.28-0.85c-0.18-0.12-0.75-0.54-0.75-0.54c-0.77-0.55-1.52-1.1-2.26-1.68
		l-0.63-0.49c-1.45-1.16-2.86-2.38-4.2-3.64l-0.33-0.32c-1.41-1.35-2.77-2.76-4.03-4.2l-0.07-0.08c-1.86-2.13-3.59-4.39-5.16-6.73
		c5.58-2.74,12.07-5.01,19.33-6.77l0.4-0.09c0.96-0.23,1.94-0.45,2.92-0.66l0.77-0.16c0.87-0.18,1.75-0.36,2.65-0.52l1.02-0.18
		c0.82-0.15,1.65-0.29,2.49-0.42l1.19-0.18c0.79-0.12,1.6-0.23,2.4-0.34c0.44-0.06,0.88-0.12,1.32-0.17
		c0.79-0.1,1.57-0.19,2.36-0.27c0,0,1.01-0.11,1.41-0.15c0.79-0.08,1.58-0.15,2.37-0.21c0,0,1.11-0.09,1.45-0.12
		c0.81-0.06,1.62-0.11,2.44-0.15l0.45-0.03c0.33-0.02,0.65-0.04,0.98-0.06c0.88-0.04,1.77-0.07,2.67-0.1c0,0,1.02-0.04,1.26-0.04
		c1.31-0.03,2.64-0.05,3.97-0.05c1.36,0,2.71,0.02,4.05,0.05l1.32,0.05c0.9,0.03,1.79,0.06,2.68,0.1c0.36,0.02,1.54,0.09,1.54,0.09
		c0.8,0.05,1.61,0.1,2.41,0.16c0.53,0.04,1.06,0.08,1.59,0.13c0.77,0.07,1.54,0.13,2.3,0.21c0.53,0.05,1.05,0.11,1.57,0.17
		c0.76,0.08,1.51,0.17,2.26,0.27c0,0,1.1,0.14,1.52,0.2c0.77,0.11,1.53,0.22,2.29,0.34c0,0,1.04,0.16,1.39,0.21
		c0.84,0.14,1.66,0.28,2.48,0.43l1.11,0.2c1.18,0.23,2.35,0.46,3.5,0.72c1.17,0.26,2.28,0.52,3.38,0.8l1.03,0.27
		c0.75,0.2,1.51,0.39,2.25,0.6c0.31,0.09,1.19,0.35,1.19,0.35c0.67,0.2,1.33,0.39,1.98,0.6c0.41,0.13,0.81,0.26,1.21,0.39
		c0.63,0.21,1.25,0.42,1.86,0.63c0.4,0.14,0.79,0.28,1.18,0.42c0.6,0.22,1.2,0.45,1.78,0.68c0.37,0.15,0.74,0.29,1.11,0.44
		c0.6,0.24,1.18,0.49,1.76,0.75c0,0,0.76,0.33,0.98,0.42c0.64,0.29,1.26,0.59,1.88,0.89l0.72,0.34c0.35,0.17,0.69,0.35,1.03,0.53
		c-0.07,0.1-0.14,0.2-0.21,0.3c-0.74,1.05-1.49,2.07-2.29,3.08l-0.2,0.26c-1.15,1.45-2.4,2.88-3.7,4.26l-0.38,0.39
		c-1.26,1.31-2.59,2.59-3.96,3.79l-0.59,0.51c-0.7,0.6-1.42,1.19-2.14,1.77c0,0-0.53,0.42-0.75,0.59c-0.41,0.32-0.83,0.63-1.25,0.93
		c-0.33,0.24-0.66,0.48-1,0.71c-0.61,0.43-1.22,0.84-1.84,1.25c-0.37,0.24-0.75,0.48-1.12,0.72c-0.38,0.24-0.76,0.47-1.14,0.7
		c-0.65,0.38-1.3,0.76-1.96,1.13c-0.27,0.15-0.54,0.29-0.81,0.43l-0.23,0.12c-0.49,0.26-0.99,0.52-1.49,0.76
		c0,0-0.73,0.36-0.95,0.47c-0.74,0.35-1.48,0.69-2.23,1.01c-0.31,0.13-0.63,0.27-0.94,0.4c-0.67,0.28-1.34,0.54-2.02,0.8l-0.75,0.28
		c-0.77,0.28-1.54,0.54-2.32,0.79c-0.28,0.09-0.56,0.18-0.83,0.26c-0.86,0.26-1.72,0.51-2.6,0.74l-0.55,0.13
		c-0.78,0.2-1.56,0.38-2.36,0.54l-0.69,0.15c-0.91,0.18-1.84,0.35-2.77,0.49l-0.63,0.09c-0.85,0.13-1.71,0.24-2.57,0.33l-0.46,0.05
		c-0.97,0.1-1.94,0.17-2.92,0.22l-0.68,0.03C103.36,154.48,102.4,154.5,101.5,154.5z"/>
	<path class="st1" d="M100.5,116c1.28,0,2.59,0.02,4.02,0.05c0.26,0.01,0.52,0.02,0.78,0.03l0.53,0.02c0.89,0.03,1.78,0.06,2.66,0.1
		c0.37,0.02,0.73,0.04,1.1,0.06l0.42,0.03c0.8,0.05,1.59,0.1,2.38,0.16c0.52,0.04,1.04,0.08,1.57,0.13
		c0.76,0.06,1.52,0.13,2.28,0.21c0.52,0.05,1.04,0.11,1.56,0.16c0.75,0.08,1.49,0.17,2.23,0.27l0.07,0.01
		c0.48,0.06,0.96,0.12,1.43,0.19c0.76,0.1,1.51,0.22,2.26,0.33l0.42,0.06c0.32,0.05,0.64,0.1,0.95,0.15
		c0.83,0.14,1.64,0.28,2.45,0.43l0.47,0.08c0.21,0.04,0.42,0.07,0.63,0.11c1.23,0.24,2.37,0.47,3.43,0.7l0.04,0.01l0.02,0.01
		c1.07,0.24,2.16,0.49,3.31,0.78c0.2,0.05,0.4,0.1,0.59,0.15l0.43,0.11c0.75,0.19,1.49,0.39,2.22,0.59
		c0.28,0.08,0.56,0.16,0.83,0.24l0.35,0.1c0.66,0.19,1.31,0.39,1.95,0.59c0.39,0.12,0.78,0.25,1.2,0.39
		c0.62,0.2,1.22,0.41,1.83,0.62c0.39,0.14,0.78,0.28,1.16,0.42c0.59,0.22,1.18,0.44,1.75,0.66l0.11,0.04
		c0.33,0.13,0.66,0.26,0.98,0.39c0.59,0.24,1.16,0.49,1.73,0.73l0.33,0.14c0.21,0.09,0.43,0.18,0.63,0.28
		c0.63,0.28,1.24,0.57,1.84,0.87l0.17,0.08c-0.46,0.63-0.94,1.26-1.43,1.89l-0.09,0.11l-0.11,0.14c-1.13,1.42-2.35,2.83-3.62,4.17
		l-0.37,0.38c-1.24,1.29-2.54,2.54-3.87,3.71c-0.16,0.14-0.33,0.29-0.49,0.43l-0.09,0.07c-0.67,0.57-1.37,1.15-2.09,1.73l-0.18,0.15
		c-0.18,0.14-0.36,0.29-0.55,0.43c-0.4,0.31-0.81,0.61-1.22,0.91c-0.31,0.23-0.62,0.45-0.93,0.66l-0.05,0.03
		c-0.59,0.42-1.2,0.83-1.79,1.22c-0.36,0.24-0.73,0.47-1.1,0.7c-0.37,0.23-0.74,0.46-1.11,0.69c-0.67,0.4-1.3,0.76-1.92,1.1
		c-0.26,0.14-0.52,0.28-0.78,0.42l-0.24,0.13c-0.48,0.25-0.97,0.5-1.46,0.75l-0.29,0.14c-0.21,0.11-0.43,0.21-0.64,0.32
		c-0.68,0.32-1.4,0.65-2.18,0.99c-0.31,0.13-0.61,0.26-0.92,0.39c-0.68,0.28-1.34,0.54-1.97,0.78l-0.16,0.06
		c-0.19,0.07-0.38,0.14-0.58,0.21c-0.71,0.26-1.45,0.51-2.27,0.77c-0.27,0.09-0.54,0.17-0.82,0.26c-0.93,0.28-1.76,0.52-2.54,0.72
		c-0.09,0.02-0.17,0.04-0.26,0.06l-0.27,0.07c-0.75,0.19-1.52,0.37-2.3,0.53l-0.24,0.05c-0.15,0.03-0.29,0.06-0.44,0.09
		c-0.91,0.18-1.82,0.34-2.71,0.48c-0.12,0.02-0.24,0.04-0.36,0.05l-0.25,0.04c-0.86,0.13-1.7,0.23-2.51,0.32l-0.24,0.03l-0.21,0.02
		c-0.89,0.09-1.83,0.16-2.85,0.22c-0.21,0.01-0.41,0.02-0.66,0.03c-1.14,0.05-2.08,0.08-2.96,0.08c-0.88,0-1.82-0.02-2.96-0.08
		c-0.23-0.01-0.46-0.02-0.68-0.03c-1.05-0.06-1.98-0.13-2.86-0.22l-0.16-0.02l-0.22-0.03c-0.81-0.09-1.64-0.19-2.53-0.32l-0.21-0.03
		c-0.16-0.02-0.31-0.05-0.47-0.07c-0.93-0.15-1.84-0.31-2.71-0.48c-0.12-0.02-0.24-0.05-0.36-0.08l-0.27-0.06
		c-0.73-0.15-1.48-0.33-2.22-0.51l-0.28-0.07c-0.14-0.03-0.28-0.07-0.42-0.1c-0.81-0.21-1.66-0.45-2.52-0.71
		c-0.21-0.06-0.42-0.13-0.62-0.2l-0.2-0.06c-0.64-0.2-1.3-0.43-1.95-0.66l-0.32-0.11c-0.14-0.05-0.27-0.09-0.41-0.14
		c-0.69-0.25-1.44-0.55-2.29-0.9c-0.33-0.14-0.65-0.28-0.98-0.42c-0.56-0.24-1.12-0.5-1.67-0.75c-0.44-0.21-0.88-0.42-1.32-0.64
		c-0.51-0.25-1.02-0.51-1.52-0.78c-0.38-0.2-0.75-0.4-1.13-0.61c-0.45-0.25-0.89-0.51-1.33-0.76c-0.58-0.34-1.16-0.69-1.73-1.05
		c-0.33-0.21-0.66-0.42-0.98-0.63c-0.42-0.27-0.84-0.55-1.25-0.84c-0.16-0.11-0.31-0.22-0.47-0.33l-0.27-0.19
		c-0.77-0.55-1.52-1.1-2.21-1.64c-0.21-0.16-0.41-0.32-0.61-0.48c-1.42-1.13-2.8-2.33-4.1-3.56l-0.24-0.23l-0.08-0.07
		c-1.38-1.32-2.71-2.7-3.96-4.13l-0.05-0.05c-1.44-1.64-2.79-3.37-4.06-5.15c5.12-2.36,10.97-4.34,17.45-5.91l0.19-0.04l0.21-0.05
		c0.97-0.23,1.94-0.45,2.89-0.65l0.47-0.1l0.29-0.06c0.86-0.18,1.73-0.35,2.62-0.52c0.28-0.05,0.56-0.1,0.84-0.15l0.17-0.03
		c0.81-0.14,1.63-0.28,2.46-0.42c0.39-0.06,0.79-0.12,1.18-0.18c0.79-0.12,1.58-0.23,2.38-0.34c0.44-0.06,0.87-0.12,1.31-0.17
		c0.77-0.1,1.55-0.18,2.34-0.27l0.25-0.03c0.38-0.04,0.76-0.08,1.15-0.12c0.78-0.08,1.56-0.14,2.35-0.21l0.42-0.04
		c0.34-0.03,0.68-0.06,1.02-0.08c0.8-0.06,1.61-0.11,2.41-0.15l0.51-0.03c0.3-0.02,0.61-0.04,0.91-0.05
		c0.87-0.04,1.76-0.07,2.64-0.1l0.53-0.02c0.24-0.01,0.48-0.02,0.72-0.02C97.92,116.02,99.24,116,100.5,116 M100.5,113
		c-1.34,0-2.68,0.02-4.01,0.05c-0.43,0.01-0.85,0.03-1.27,0.04c-0.9,0.03-1.8,0.06-2.69,0.1c-0.49,0.02-0.97,0.06-1.45,0.08
		c-0.82,0.05-1.65,0.1-2.46,0.16c-0.49,0.04-0.98,0.08-1.47,0.12c-0.8,0.07-1.6,0.13-2.39,0.21c-0.48,0.05-0.95,0.1-1.42,0.15
		c-0.8,0.09-1.6,0.18-2.38,0.27c-0.45,0.06-0.89,0.11-1.34,0.17c-0.81,0.11-1.62,0.22-2.43,0.34c-0.4,0.06-0.81,0.12-1.21,0.19
		c-0.85,0.13-1.68,0.28-2.52,0.42c-0.34,0.06-0.69,0.12-1.03,0.18c-0.9,0.17-1.79,0.34-2.68,0.53c-0.26,0.05-0.52,0.11-0.78,0.16
		c-1,0.21-1.98,0.44-2.96,0.67c-0.13,0.03-0.27,0.06-0.4,0.09c-8.03,1.95-15.2,4.55-21.15,7.65c0,0,0,0,0,0c0,0,0,0,0,0
		c1.86,2.93,3.93,5.7,6.21,8.3c0.02,0.03,0.05,0.05,0.07,0.08c1.31,1.49,2.69,2.93,4.12,4.3c0.11,0.11,0.22,0.22,0.34,0.32
		c1.38,1.3,2.81,2.54,4.29,3.72c0.21,0.17,0.43,0.34,0.64,0.51c0.76,0.59,1.53,1.16,2.31,1.72c0.26,0.18,0.51,0.37,0.77,0.55
		c0.43,0.3,0.87,0.59,1.31,0.87c0.34,0.22,0.69,0.44,1.03,0.66c0.6,0.38,1.2,0.74,1.81,1.1c0.46,0.27,0.92,0.54,1.39,0.8
		c0.39,0.22,0.78,0.43,1.18,0.64c0.53,0.28,1.06,0.55,1.59,0.82c0.46,0.23,0.92,0.45,1.38,0.67c0.58,0.27,1.16,0.54,1.75,0.79
		c0.34,0.15,0.68,0.29,1.03,0.44c0.79,0.33,1.59,0.65,2.4,0.95c0.25,0.09,0.51,0.18,0.77,0.27c0.68,0.24,1.36,0.47,2.04,0.69
		c0.29,0.09,0.57,0.19,0.86,0.27c0.87,0.27,1.75,0.52,2.63,0.75c0.24,0.06,0.48,0.12,0.73,0.18c0.77,0.19,1.55,0.37,2.33,0.54
		c0.22,0.05,0.44,0.1,0.66,0.14c0.94,0.19,1.88,0.36,2.83,0.51c0.24,0.04,0.47,0.07,0.71,0.1c0.88,0.13,1.76,0.24,2.65,0.34
		c0.13,0.01,0.26,0.03,0.4,0.05c0.99,0.1,1.99,0.17,3,0.23c0.24,0.01,0.48,0.02,0.71,0.03c1.03,0.05,2.06,0.08,3.09,0.08
		c1.04,0,2.07-0.03,3.09-0.08c0.23-0.01,0.46-0.02,0.69-0.03c1-0.06,2-0.13,2.98-0.23c0.16-0.02,0.31-0.04,0.47-0.05
		c0.88-0.09,1.76-0.21,2.63-0.33c0.21-0.03,0.43-0.06,0.64-0.09c0.95-0.15,1.9-0.32,2.83-0.51c0.24-0.05,0.47-0.1,0.71-0.15
		c0.81-0.17,1.61-0.36,2.41-0.56c0.18-0.05,0.37-0.09,0.56-0.14c0.89-0.23,1.78-0.49,2.66-0.75c0.29-0.09,0.57-0.18,0.85-0.27
		c0.8-0.25,1.59-0.52,2.37-0.8c0.26-0.09,0.51-0.19,0.77-0.29c0.69-0.26,1.38-0.53,2.06-0.81c0.32-0.13,0.64-0.27,0.96-0.4
		c0.77-0.33,1.53-0.67,2.28-1.03c0.33-0.16,0.65-0.32,0.97-0.48c0.51-0.25,1.02-0.51,1.52-0.78c0.35-0.19,0.71-0.37,1.06-0.57
		c0.68-0.37,1.35-0.76,2.01-1.15c0.39-0.23,0.78-0.48,1.17-0.72c0.39-0.24,0.77-0.49,1.15-0.73c0.63-0.41,1.26-0.84,1.88-1.27
		c0.34-0.24,0.69-0.48,1.02-0.73c0.43-0.31,0.85-0.63,1.28-0.96c0.26-0.2,0.51-0.4,0.77-0.6c0.74-0.59,1.47-1.19,2.19-1.81
		c0.2-0.17,0.41-0.35,0.61-0.53c1.4-1.24,2.76-2.53,4.05-3.88c0.13-0.13,0.25-0.27,0.38-0.4c1.32-1.4,2.59-2.86,3.79-4.36
		c0.07-0.09,0.14-0.17,0.2-0.26c0.8-1.01,1.56-2.04,2.3-3.1c0.01-0.02,0.02-0.03,0.04-0.05c0.39-0.56,0.77-1.13,1.15-1.7
		c0,0,0,0,0,0c-0.82-0.45-1.67-0.9-2.53-1.33c-0.24-0.12-0.49-0.23-0.73-0.35c-0.63-0.31-1.27-0.61-1.92-0.9
		c-0.33-0.15-0.66-0.29-1-0.43c-0.59-0.26-1.19-0.51-1.8-0.76c-0.37-0.15-0.75-0.3-1.12-0.44c-0.6-0.23-1.2-0.46-1.81-0.69
		c-0.4-0.14-0.79-0.29-1.2-0.43c-0.62-0.22-1.25-0.43-1.88-0.64c-0.41-0.13-0.82-0.27-1.23-0.4c-0.66-0.21-1.33-0.41-2.01-0.61
		c-0.4-0.12-0.8-0.24-1.21-0.35c-0.75-0.21-1.51-0.41-2.28-0.61c-0.35-0.09-0.69-0.19-1.05-0.27c-1.12-0.28-2.25-0.55-3.4-0.8
		c-0.01,0-0.02,0-0.03-0.01c-1.16-0.26-2.35-0.5-3.54-0.73c-0.37-0.07-0.75-0.13-1.12-0.2c-0.83-0.15-1.66-0.3-2.51-0.44
		c-0.46-0.08-0.93-0.14-1.4-0.22c-0.77-0.12-1.54-0.23-2.31-0.34c-0.51-0.07-1.02-0.13-1.54-0.2c-0.75-0.1-1.51-0.19-2.28-0.27
		c-0.53-0.06-1.06-0.11-1.59-0.17c-0.77-0.08-1.55-0.15-2.32-0.21c-0.53-0.05-1.06-0.09-1.6-0.13c-0.81-0.06-1.62-0.11-2.43-0.16
		c-0.52-0.03-1.03-0.06-1.55-0.09c-0.9-0.04-1.8-0.08-2.71-0.11c-0.44-0.01-0.88-0.04-1.33-0.05C103.24,113.02,101.87,113,100.5,113
		L100.5,113z"/>
</g>
<g>
	<ellipse class="st0" cx="103.5" cy="66" rx="29" ry="26.5"/>
	<path class="st1" d="M103.5,41c15.16,0,27.5,11.21,27.5,25s-12.34,25-27.5,25S76,79.79,76,66S88.34,41,103.5,41 M103.5,38
		C86.66,38,73,50.54,73,66s13.66,28,30.5,28S134,81.46,134,66S120.34,38,103.5,38L103.5,38z"/>
</g>
<g>
	<ellipse class="st0" cx="103.5" cy="66" rx="29" ry="26.5"/>
	<path class="st1" d="M103.5,41c15.16,0,27.5,11.21,27.5,25s-12.34,25-27.5,25S76,79.79,76,66S88.34,41,103.5,41 M103.5,38
		C86.66,38,73,50.54,73,66s13.66,28,30.5,28S134,81.46,134,66S120.34,38,103.5,38L103.5,38z"/>
</g>
<g>
	<path class="st0" d="M101.5,154.5c-0.9,0-1.86-0.02-3.03-0.08l-0.7-0.03c-0.99-0.05-1.96-0.13-2.94-0.22l-0.38-0.04
		c-0.88-0.09-1.74-0.2-2.6-0.33l-0.69-0.1c-0.93-0.15-1.85-0.31-2.77-0.5l-0.65-0.14c-0.76-0.16-1.52-0.34-2.27-0.52l-0.71-0.18
		c-0.87-0.23-1.73-0.47-2.58-0.73c-0.21-0.06-0.84-0.27-0.84-0.27c-0.67-0.21-1.33-0.44-1.99-0.67c0,0-0.6-0.21-0.75-0.26
		c-0.79-0.29-1.57-0.61-2.35-0.93c-0.34-0.14-0.67-0.28-1-0.43c-0.57-0.25-1.14-0.51-1.71-0.77c-0.46-0.21-0.91-0.43-1.35-0.65
		c-0.52-0.26-1.04-0.53-1.56-0.8c-0.38-0.2-0.77-0.41-1.15-0.62c-0.46-0.25-0.91-0.52-1.36-0.78c-0.59-0.35-1.18-0.71-1.77-1.08
		c-0.34-0.21-0.68-0.43-1.01-0.65c-0.43-0.28-0.85-0.56-1.28-0.85c-0.18-0.12-0.75-0.54-0.75-0.54c-0.77-0.55-1.52-1.1-2.26-1.68
		l-0.63-0.49c-1.45-1.16-2.86-2.38-4.2-3.64l-0.33-0.32c-1.41-1.35-2.77-2.76-4.03-4.2l-0.07-0.08c-1.86-2.13-3.59-4.39-5.16-6.73
		c5.58-2.74,12.07-5.01,19.33-6.77l0.4-0.09c0.96-0.23,1.94-0.45,2.92-0.66l0.77-0.16c0.87-0.18,1.75-0.36,2.65-0.52l1.02-0.18
		c0.82-0.15,1.65-0.29,2.49-0.42l1.19-0.18c0.79-0.12,1.6-0.23,2.4-0.34c0.44-0.06,0.88-0.12,1.32-0.17
		c0.79-0.1,1.57-0.19,2.36-0.27c0,0,1.01-0.11,1.41-0.15c0.79-0.08,1.58-0.15,2.37-0.21c0,0,1.11-0.09,1.45-0.12
		c0.81-0.06,1.62-0.11,2.44-0.15l0.45-0.03c0.33-0.02,0.65-0.04,0.98-0.06c0.88-0.04,1.77-0.07,2.67-0.1c0,0,1.02-0.04,1.26-0.04
		c1.31-0.03,2.64-0.05,3.97-0.05c1.36,0,2.71,0.02,4.05,0.05l1.32,0.05c0.9,0.03,1.79,0.06,2.68,0.1c0.36,0.02,1.54,0.09,1.54,0.09
		c0.8,0.05,1.61,0.1,2.41,0.16c0.53,0.04,1.06,0.08,1.59,0.13c0.77,0.07,1.54,0.13,2.3,0.21c0.53,0.05,1.05,0.11,1.57,0.17
		c0.76,0.08,1.51,0.17,2.26,0.27c0,0,1.1,0.14,1.52,0.2c0.77,0.11,1.53,0.22,2.29,0.34c0,0,1.04,0.16,1.39,0.21
		c0.84,0.14,1.66,0.28,2.48,0.43l1.11,0.2c1.18,0.23,2.35,0.46,3.5,0.72c1.17,0.26,2.28,0.52,3.38,0.8l1.03,0.27
		c0.75,0.2,1.51,0.39,2.25,0.6c0.31,0.09,1.19,0.35,1.19,0.35c0.67,0.2,1.33,0.39,1.98,0.6c0.41,0.13,0.81,0.26,1.21,0.39
		c0.63,0.21,1.25,0.42,1.86,0.63c0.4,0.14,0.79,0.28,1.18,0.42c0.6,0.22,1.2,0.45,1.78,0.68c0.37,0.15,0.74,0.29,1.11,0.44
		c0.6,0.24,1.18,0.49,1.76,0.75c0,0,0.76,0.33,0.98,0.42c0.64,0.29,1.26,0.59,1.88,0.89l0.72,0.34c0.35,0.17,0.69,0.35,1.03,0.53
		c-0.07,0.1-0.14,0.2-0.21,0.3c-0.74,1.05-1.49,2.07-2.29,3.08l-0.2,0.26c-1.15,1.45-2.4,2.88-3.7,4.26l-0.38,0.39
		c-1.26,1.31-2.59,2.59-3.96,3.79l-0.59,0.51c-0.7,0.6-1.42,1.19-2.14,1.77c0,0-0.53,0.42-0.75,0.59c-0.41,0.32-0.83,0.63-1.25,0.93
		c-0.33,0.24-0.66,0.48-1,0.71c-0.61,0.43-1.22,0.84-1.84,1.25c-0.37,0.24-0.75,0.48-1.12,0.72c-0.38,0.24-0.76,0.47-1.14,0.7
		c-0.65,0.38-1.3,0.76-1.96,1.13c-0.27,0.15-0.54,0.29-0.81,0.43l-0.23,0.12c-0.49,0.26-0.99,0.52-1.49,0.76
		c0,0-0.73,0.36-0.95,0.47c-0.74,0.35-1.48,0.69-2.23,1.01c-0.31,0.13-0.63,0.27-0.94,0.4c-0.67,0.28-1.34,0.54-2.02,0.8l-0.75,0.28
		c-0.77,0.28-1.54,0.54-2.32,0.79c-0.28,0.09-0.56,0.18-0.83,0.26c-0.86,0.26-1.72,0.51-2.6,0.74l-0.55,0.13
		c-0.78,0.2-1.56,0.38-2.36,0.54l-0.69,0.15c-0.91,0.18-1.84,0.35-2.77,0.49l-0.63,0.09c-0.85,0.13-1.71,0.24-2.57,0.33l-0.46,0.05
		c-0.97,0.1-1.94,0.17-2.92,0.22l-0.68,0.03C103.36,154.48,102.4,154.5,101.5,154.5z"/>
	<path class="st1" d="M100.5,116c1.28,0,2.59,0.02,4.02,0.05c0.26,0.01,0.52,0.02,0.78,0.03l0.53,0.02c0.89,0.03,1.78,0.06,2.66,0.1
		c0.37,0.02,0.73,0.04,1.1,0.06l0.42,0.03c0.8,0.05,1.59,0.1,2.38,0.16c0.52,0.04,1.04,0.08,1.57,0.13
		c0.76,0.06,1.52,0.13,2.28,0.21c0.52,0.05,1.04,0.11,1.56,0.16c0.75,0.08,1.49,0.17,2.23,0.27l0.07,0.01
		c0.48,0.06,0.96,0.12,1.43,0.19c0.76,0.1,1.51,0.22,2.26,0.33l0.42,0.06c0.32,0.05,0.64,0.1,0.95,0.15
		c0.83,0.14,1.64,0.28,2.45,0.43l0.47,0.08c0.21,0.04,0.42,0.07,0.63,0.11c1.23,0.24,2.37,0.47,3.43,0.7l0.04,0.01l0.02,0.01
		c1.07,0.24,2.16,0.49,3.31,0.78c0.2,0.05,0.4,0.1,0.59,0.15l0.43,0.11c0.75,0.19,1.49,0.39,2.22,0.59
		c0.28,0.08,0.56,0.16,0.83,0.24l0.35,0.1c0.66,0.19,1.31,0.39,1.95,0.59c0.39,0.12,0.78,0.25,1.2,0.39
		c0.62,0.2,1.22,0.41,1.83,0.62c0.39,0.14,0.78,0.28,1.16,0.42c0.59,0.22,1.18,0.44,1.75,0.66l0.11,0.04
		c0.33,0.13,0.66,0.26,0.98,0.39c0.59,0.24,1.16,0.49,1.73,0.73l0.33,0.14c0.21,0.09,0.43,0.18,0.63,0.28
		c0.63,0.28,1.24,0.57,1.84,0.87l0.17,0.08c-0.46,0.63-0.94,1.26-1.43,1.89l-0.09,0.11l-0.11,0.14c-1.13,1.42-2.35,2.83-3.62,4.17
		l-0.37,0.38c-1.24,1.29-2.54,2.54-3.87,3.71c-0.16,0.14-0.33,0.29-0.49,0.43l-0.09,0.07c-0.67,0.57-1.37,1.15-2.09,1.73l-0.18,0.15
		c-0.18,0.14-0.36,0.29-0.55,0.43c-0.4,0.31-0.81,0.61-1.22,0.91c-0.31,0.23-0.62,0.45-0.93,0.66l-0.05,0.03
		c-0.59,0.42-1.2,0.83-1.79,1.22c-0.36,0.24-0.73,0.47-1.1,0.7c-0.37,0.23-0.74,0.46-1.11,0.69c-0.67,0.4-1.3,0.76-1.92,1.1
		c-0.26,0.14-0.52,0.28-0.78,0.42l-0.24,0.13c-0.48,0.25-0.97,0.5-1.46,0.75l-0.29,0.14c-0.21,0.11-0.43,0.21-0.64,0.32
		c-0.68,0.32-1.4,0.65-2.18,0.99c-0.31,0.13-0.61,0.26-0.92,0.39c-0.68,0.28-1.34,0.54-1.97,0.78l-0.16,0.06
		c-0.19,0.07-0.38,0.14-0.58,0.21c-0.71,0.26-1.45,0.51-2.27,0.77c-0.27,0.09-0.54,0.17-0.82,0.26c-0.93,0.28-1.76,0.52-2.54,0.72
		c-0.09,0.02-0.17,0.04-0.26,0.06l-0.27,0.07c-0.75,0.19-1.52,0.37-2.3,0.53l-0.24,0.05c-0.15,0.03-0.29,0.06-0.44,0.09
		c-0.91,0.18-1.82,0.34-2.71,0.48c-0.12,0.02-0.24,0.04-0.36,0.05l-0.25,0.04c-0.86,0.13-1.7,0.23-2.51,0.32l-0.24,0.03l-0.21,0.02
		c-0.89,0.09-1.83,0.16-2.85,0.22c-0.21,0.01-0.41,0.02-0.66,0.03c-1.14,0.05-2.08,0.08-2.96,0.08c-0.88,0-1.82-0.02-2.96-0.08
		c-0.23-0.01-0.46-0.02-0.68-0.03c-1.05-0.06-1.98-0.13-2.86-0.22l-0.16-0.02l-0.22-0.03c-0.81-0.09-1.64-0.19-2.53-0.32l-0.21-0.03
		c-0.16-0.02-0.31-0.05-0.47-0.07c-0.93-0.15-1.84-0.31-2.71-0.48c-0.12-0.02-0.24-0.05-0.36-0.08l-0.27-0.06
		c-0.73-0.15-1.48-0.33-2.22-0.51l-0.28-0.07c-0.14-0.03-0.28-0.07-0.42-0.1c-0.81-0.21-1.66-0.45-2.52-0.71
		c-0.21-0.06-0.42-0.13-0.62-0.2l-0.2-0.06c-0.64-0.2-1.3-0.43-1.95-0.66l-0.32-0.11c-0.14-0.05-0.27-0.09-0.41-0.14
		c-0.69-0.25-1.44-0.55-2.29-0.9c-0.33-0.14-0.65-0.28-0.98-0.42c-0.56-0.24-1.12-0.5-1.67-0.75c-0.44-0.21-0.88-0.42-1.32-0.64
		c-0.51-0.25-1.02-0.51-1.52-0.78c-0.38-0.2-0.75-0.4-1.13-0.61c-0.45-0.25-0.89-0.51-1.33-0.76c-0.58-0.34-1.16-0.69-1.73-1.05
		c-0.33-0.21-0.66-0.42-0.98-0.63c-0.42-0.27-0.84-0.55-1.25-0.84c-0.16-0.11-0.31-0.22-0.47-0.33l-0.27-0.19
		c-0.77-0.55-1.52-1.1-2.21-1.64c-0.21-0.16-0.41-0.32-0.61-0.48c-1.42-1.13-2.8-2.33-4.1-3.56l-0.24-0.23l-0.08-0.07
		c-1.38-1.32-2.71-2.7-3.96-4.13l-0.05-0.05c-1.44-1.64-2.79-3.37-4.06-5.15c5.12-2.36,10.97-4.34,17.45-5.91l0.19-0.04l0.21-0.05
		c0.97-0.23,1.94-0.45,2.89-0.65l0.47-0.1l0.29-0.06c0.86-0.18,1.73-0.35,2.62-0.52c0.28-0.05,0.56-0.1,0.84-0.15l0.17-0.03
		c0.81-0.14,1.63-0.28,2.46-0.42c0.39-0.06,0.79-0.12,1.18-0.18c0.79-0.12,1.58-0.23,2.38-0.34c0.44-0.06,0.87-0.12,1.31-0.17
		c0.77-0.1,1.55-0.18,2.34-0.27l0.25-0.03c0.38-0.04,0.76-0.08,1.15-0.12c0.78-0.08,1.56-0.14,2.35-0.21l0.42-0.04
		c0.34-0.03,0.68-0.06,1.02-0.08c0.8-0.06,1.61-0.11,2.41-0.15l0.51-0.03c0.3-0.02,0.61-0.04,0.91-0.05
		c0.87-0.04,1.76-0.07,2.64-0.1l0.53-0.02c0.24-0.01,0.48-0.02,0.72-0.02C97.92,116.02,99.24,116,100.5,116 M100.5,113
		c-1.34,0-2.68,0.02-4.01,0.05c-0.43,0.01-0.85,0.03-1.27,0.04c-0.9,0.03-1.8,0.06-2.69,0.1c-0.49,0.02-0.97,0.06-1.45,0.08
		c-0.82,0.05-1.65,0.1-2.46,0.16c-0.49,0.04-0.98,0.08-1.47,0.12c-0.8,0.07-1.6,0.13-2.39,0.21c-0.48,0.05-0.95,0.1-1.42,0.15
		c-0.8,0.09-1.6,0.18-2.38,0.27c-0.45,0.06-0.89,0.11-1.34,0.17c-0.81,0.11-1.62,0.22-2.43,0.34c-0.4,0.06-0.81,0.12-1.21,0.19
		c-0.85,0.13-1.68,0.28-2.52,0.42c-0.34,0.06-0.69,0.12-1.03,0.18c-0.9,0.17-1.79,0.34-2.68,0.53c-0.26,0.05-0.52,0.11-0.78,0.16
		c-1,0.21-1.98,0.44-2.96,0.67c-0.13,0.03-0.27,0.06-0.4,0.09c-8.03,1.95-15.2,4.55-21.15,7.65c0,0,0,0,0,0c0,0,0,0,0,0
		c1.86,2.93,3.93,5.7,6.21,8.3c0.02,0.03,0.05,0.05,0.07,0.08c1.31,1.49,2.69,2.93,4.12,4.3c0.11,0.11,0.22,0.22,0.34,0.32
		c1.38,1.3,2.81,2.54,4.29,3.72c0.21,0.17,0.43,0.34,0.64,0.51c0.76,0.59,1.53,1.16,2.31,1.72c0.26,0.18,0.51,0.37,0.77,0.55
		c0.43,0.3,0.87,0.59,1.31,0.87c0.34,0.22,0.69,0.44,1.03,0.66c0.6,0.38,1.2,0.74,1.81,1.1c0.46,0.27,0.92,0.54,1.39,0.8
		c0.39,0.22,0.78,0.43,1.18,0.64c0.53,0.28,1.06,0.55,1.59,0.82c0.46,0.23,0.92,0.45,1.38,0.67c0.58,0.27,1.16,0.54,1.75,0.79
		c0.34,0.15,0.68,0.29,1.03,0.44c0.79,0.33,1.59,0.65,2.4,0.95c0.25,0.09,0.51,0.18,0.77,0.27c0.68,0.24,1.36,0.47,2.04,0.69
		c0.29,0.09,0.57,0.19,0.86,0.27c0.87,0.27,1.75,0.52,2.63,0.75c0.24,0.06,0.48,0.12,0.73,0.18c0.77,0.19,1.55,0.37,2.33,0.54
		c0.22,0.05,0.44,0.1,0.66,0.14c0.94,0.19,1.88,0.36,2.83,0.51c0.24,0.04,0.47,0.07,0.71,0.1c0.88,0.13,1.76,0.24,2.65,0.34
		c0.13,0.01,0.26,0.03,0.4,0.05c0.99,0.1,1.99,0.17,3,0.23c0.24,0.01,0.48,0.02,0.71,0.03c1.03,0.05,2.06,0.08,3.09,0.08
		c1.04,0,2.07-0.03,3.09-0.08c0.23-0.01,0.46-0.02,0.69-0.03c1-0.06,2-0.13,2.98-0.23c0.16-0.02,0.31-0.04,0.47-0.05
		c0.88-0.09,1.76-0.21,2.63-0.33c0.21-0.03,0.43-0.06,0.64-0.09c0.95-0.15,1.9-0.32,2.83-0.51c0.24-0.05,0.47-0.1,0.71-0.15
		c0.81-0.17,1.61-0.36,2.41-0.56c0.18-0.05,0.37-0.09,0.56-0.14c0.89-0.23,1.78-0.49,2.66-0.75c0.29-0.09,0.57-0.18,0.85-0.27
		c0.8-0.25,1.59-0.52,2.37-0.8c0.26-0.09,0.51-0.19,0.77-0.29c0.69-0.26,1.38-0.53,2.06-0.81c0.32-0.13,0.64-0.27,0.96-0.4
		c0.77-0.33,1.53-0.67,2.28-1.03c0.33-0.16,0.65-0.32,0.97-0.48c0.51-0.25,1.02-0.51,1.52-0.78c0.35-0.19,0.71-0.37,1.06-0.57
		c0.68-0.37,1.35-0.76,2.01-1.15c0.39-0.23,0.78-0.48,1.17-0.72c0.39-0.24,0.77-0.49,1.15-0.73c0.63-0.41,1.26-0.84,1.88-1.27
		c0.34-0.24,0.69-0.48,1.02-0.73c0.43-0.31,0.85-0.63,1.28-0.96c0.26-0.2,0.51-0.4,0.77-0.6c0.74-0.59,1.47-1.19,2.19-1.81
		c0.2-0.17,0.41-0.35,0.61-0.53c1.4-1.24,2.76-2.53,4.05-3.88c0.13-0.13,0.25-0.27,0.38-0.4c1.32-1.4,2.59-2.86,3.79-4.36
		c0.07-0.09,0.14-0.17,0.2-0.26c0.8-1.01,1.56-2.04,2.3-3.1c0.01-0.02,0.02-0.03,0.04-0.05c0.39-0.56,0.77-1.13,1.15-1.7
		c0,0,0,0,0,0c-0.82-0.45-1.67-0.9-2.53-1.33c-0.24-0.12-0.49-0.23-0.73-0.35c-0.63-0.31-1.27-0.61-1.92-0.9
		c-0.33-0.15-0.66-0.29-1-0.43c-0.59-0.26-1.19-0.51-1.8-0.76c-0.37-0.15-0.75-0.3-1.12-0.44c-0.6-0.23-1.2-0.46-1.81-0.69
		c-0.4-0.14-0.79-0.29-1.2-0.43c-0.62-0.22-1.25-0.43-1.88-0.64c-0.41-0.13-0.82-0.27-1.23-0.4c-0.66-0.21-1.33-0.41-2.01-0.61
		c-0.4-0.12-0.8-0.24-1.21-0.35c-0.75-0.21-1.51-0.41-2.28-0.61c-0.35-0.09-0.69-0.19-1.05-0.27c-1.12-0.28-2.25-0.55-3.4-0.8
		c-0.01,0-0.02,0-0.03-0.01c-1.16-0.26-2.35-0.5-3.54-0.73c-0.37-0.07-0.75-0.13-1.12-0.2c-0.83-0.15-1.66-0.3-2.51-0.44
		c-0.46-0.08-0.93-0.14-1.4-0.22c-0.77-0.12-1.54-0.23-2.31-0.34c-0.51-0.07-1.02-0.13-1.54-0.2c-0.75-0.1-1.51-0.19-2.28-0.27
		c-0.53-0.06-1.06-0.11-1.59-0.17c-0.77-0.08-1.55-0.15-2.32-0.21c-0.53-0.05-1.06-0.09-1.6-0.13c-0.81-0.06-1.62-0.11-2.43-0.16
		c-0.52-0.03-1.03-0.06-1.55-0.09c-0.9-0.04-1.8-0.08-2.71-0.11c-0.44-0.01-0.88-0.04-1.33-0.05C103.24,113.02,101.87,113,100.5,113
		L100.5,113z"/>
</g>
<g>
	<ellipse class="st0" cx="100.5" cy="100" rx="65" ry="63.5"/>
	<path class="st1" d="M100.5,38c35.01,0,63.5,27.81,63.5,62s-28.49,62-63.5,62S37,134.19,37,100S65.49,38,100.5,38 M100.5,35
		C63.77,35,34,64.1,34,100s29.77,65,66.5,65s66.5-29.1,66.5-65S137.23,35,100.5,35L100.5,35z"/>
</g>
<g>
	<ellipse class="st0" cx="102.5" cy="75" rx="29" ry="26.5"/>
	<path class="st1" d="M102.5,50c15.16,0,27.5,11.21,27.5,25s-12.34,25-27.5,25S75,88.79,75,75S87.34,50,102.5,50 M102.5,47
		C85.66,47,72,59.54,72,75s13.66,28,30.5,28S133,90.46,133,75S119.34,47,102.5,47L102.5,47z"/>
</g>
<g>
	<ellipse class="st0" cx="102.5" cy="75" rx="29" ry="26.5"/>
	<path class="st1" d="M102.5,50c15.16,0,27.5,11.21,27.5,25s-12.34,25-27.5,25S75,88.79,75,75S87.34,50,102.5,50 M102.5,47
		C85.66,47,72,59.54,72,75s13.66,28,30.5,28S133,90.46,133,75S119.34,47,102.5,47L102.5,47z"/>
</g>
<g>
	<path class="st0" d="M100.5,163.5c-0.9,0-1.86-0.02-3.03-0.08l-0.7-0.03c-0.99-0.05-1.96-0.13-2.94-0.22l-0.38-0.04
		c-0.88-0.09-1.74-0.2-2.6-0.33l-0.69-0.1c-0.93-0.15-1.85-0.31-2.77-0.5l-0.65-0.14c-0.76-0.16-1.52-0.34-2.27-0.52l-0.71-0.18
		c-0.87-0.23-1.73-0.47-2.58-0.73c-0.21-0.06-0.84-0.27-0.84-0.27c-0.67-0.21-1.33-0.44-1.99-0.67c0,0-0.6-0.21-0.75-0.26
		c-0.79-0.29-1.57-0.61-2.35-0.93c-0.34-0.14-0.67-0.28-1-0.43c-0.57-0.25-1.14-0.51-1.71-0.77c-0.46-0.21-0.91-0.43-1.35-0.65
		c-0.52-0.26-1.04-0.53-1.56-0.8c-0.38-0.2-0.77-0.41-1.15-0.62c-0.46-0.25-0.91-0.52-1.36-0.78c-0.59-0.35-1.18-0.71-1.77-1.08
		c-0.34-0.21-0.68-0.43-1.01-0.65c-0.43-0.28-0.85-0.56-1.28-0.85c-0.18-0.12-0.75-0.54-0.75-0.54c-0.77-0.55-1.52-1.1-2.26-1.68
		l-0.63-0.49c-1.45-1.16-2.86-2.38-4.2-3.64l-0.33-0.32c-1.41-1.35-2.77-2.76-4.03-4.2l-0.07-0.08c-1.86-2.13-3.59-4.39-5.16-6.73
		c5.58-2.74,12.07-5.01,19.33-6.77l0.4-0.09c0.96-0.23,1.94-0.45,2.92-0.66l0.77-0.16c0.87-0.18,1.75-0.36,2.65-0.52l1.02-0.18
		c0.82-0.15,1.65-0.29,2.49-0.42l1.19-0.18c0.79-0.12,1.6-0.23,2.4-0.34c0.44-0.06,0.88-0.12,1.32-0.17
		c0.79-0.1,1.57-0.19,2.36-0.27c0,0,1.01-0.11,1.41-0.15c0.79-0.08,1.58-0.15,2.37-0.21c0,0,1.11-0.09,1.45-0.12
		c0.81-0.06,1.62-0.11,2.44-0.15l0.45-0.03c0.33-0.02,0.65-0.04,0.98-0.06c0.88-0.04,1.77-0.07,2.67-0.1c0,0,1.02-0.04,1.26-0.04
		c1.31-0.03,2.64-0.05,3.97-0.05c1.36,0,2.71,0.02,4.05,0.05l1.32,0.05c0.9,0.03,1.79,0.06,2.68,0.1c0.36,0.02,1.54,0.09,1.54,0.09
		c0.8,0.05,1.61,0.1,2.41,0.16c0.53,0.04,1.06,0.08,1.59,0.13c0.77,0.07,1.54,0.13,2.3,0.21c0.53,0.05,1.05,0.11,1.57,0.17
		c0.76,0.08,1.51,0.17,2.26,0.27c0,0,1.1,0.14,1.52,0.2c0.77,0.11,1.53,0.22,2.29,0.34c0,0,1.04,0.16,1.39,0.21
		c0.84,0.14,1.66,0.28,2.48,0.43l1.11,0.2c1.18,0.23,2.35,0.46,3.5,0.72c1.17,0.26,2.28,0.52,3.38,0.8l1.03,0.27
		c0.75,0.2,1.51,0.39,2.25,0.6c0.31,0.09,1.19,0.35,1.19,0.35c0.67,0.2,1.33,0.39,1.98,0.6c0.41,0.13,0.81,0.26,1.21,0.39
		c0.63,0.21,1.25,0.42,1.86,0.63c0.4,0.14,0.79,0.28,1.18,0.42c0.6,0.22,1.2,0.45,1.78,0.68c0.37,0.15,0.74,0.29,1.11,0.44
		c0.6,0.24,1.18,0.49,1.76,0.75c0,0,0.76,0.33,0.98,0.42c0.64,0.29,1.26,0.59,1.88,0.89l0.72,0.34c0.35,0.17,0.69,0.35,1.03,0.53
		c-0.07,0.1-0.14,0.2-0.21,0.3c-0.74,1.05-1.49,2.07-2.29,3.08l-0.2,0.26c-1.15,1.45-2.4,2.88-3.7,4.26l-0.38,0.39
		c-1.26,1.31-2.59,2.59-3.96,3.79l-0.59,0.51c-0.7,0.6-1.42,1.19-2.14,1.77c0,0-0.53,0.42-0.75,0.59c-0.41,0.32-0.83,0.63-1.25,0.93
		c-0.33,0.24-0.66,0.48-1,0.71c-0.61,0.43-1.22,0.84-1.84,1.25c-0.37,0.24-0.75,0.48-1.12,0.72c-0.38,0.24-0.76,0.47-1.14,0.7
		c-0.65,0.38-1.3,0.76-1.96,1.13c-0.27,0.15-0.54,0.29-0.81,0.43l-0.23,0.12c-0.49,0.26-0.99,0.52-1.49,0.76
		c0,0-0.73,0.36-0.95,0.47c-0.74,0.35-1.48,0.69-2.23,1.01c-0.31,0.13-0.63,0.27-0.94,0.4c-0.67,0.28-1.34,0.54-2.02,0.8l-0.75,0.28
		c-0.77,0.28-1.54,0.54-2.32,0.79c-0.28,0.09-0.56,0.18-0.83,0.26c-0.86,0.26-1.72,0.51-2.6,0.74l-0.55,0.13
		c-0.78,0.2-1.56,0.38-2.36,0.54l-0.69,0.15c-0.91,0.18-1.84,0.35-2.77,0.49l-0.63,0.09c-0.85,0.13-1.71,0.24-2.57,0.33l-0.46,0.05
		c-0.97,0.1-1.94,0.17-2.92,0.22l-0.68,0.03C102.36,163.48,101.4,163.5,100.5,163.5z"/>
	<path class="st1" d="M99.5,125c1.28,0,2.59,0.02,4.02,0.05c0.26,0.01,0.52,0.02,0.78,0.03l0.53,0.02c0.89,0.03,1.78,0.06,2.66,0.1
		c0.37,0.02,0.73,0.04,1.1,0.06l0.42,0.03c0.8,0.05,1.59,0.1,2.38,0.16c0.52,0.04,1.04,0.08,1.57,0.13
		c0.76,0.06,1.52,0.13,2.28,0.21c0.52,0.05,1.04,0.11,1.56,0.16c0.75,0.08,1.49,0.17,2.23,0.27l0.07,0.01
		c0.48,0.06,0.96,0.12,1.43,0.19c0.76,0.1,1.51,0.22,2.26,0.33l0.42,0.06c0.32,0.05,0.64,0.1,0.95,0.15
		c0.83,0.14,1.64,0.28,2.45,0.43l0.47,0.08c0.21,0.04,0.42,0.07,0.63,0.11c1.23,0.24,2.37,0.47,3.43,0.7l0.04,0.01l0.02,0.01
		c1.07,0.24,2.16,0.49,3.31,0.78c0.2,0.05,0.4,0.1,0.59,0.15l0.43,0.11c0.75,0.19,1.49,0.39,2.22,0.59
		c0.28,0.08,0.56,0.16,0.83,0.24l0.35,0.1c0.66,0.19,1.31,0.39,1.95,0.59c0.39,0.12,0.78,0.25,1.2,0.39
		c0.62,0.2,1.22,0.41,1.83,0.62c0.39,0.14,0.78,0.28,1.16,0.42c0.59,0.22,1.18,0.44,1.75,0.66l0.11,0.04
		c0.33,0.13,0.66,0.26,0.98,0.39c0.59,0.24,1.16,0.49,1.73,0.73l0.33,0.14c0.21,0.09,0.43,0.18,0.63,0.28
		c0.63,0.28,1.24,0.57,1.84,0.87l0.17,0.08c-0.46,0.63-0.94,1.26-1.43,1.89l-0.09,0.11l-0.11,0.14c-1.13,1.42-2.35,2.83-3.62,4.17
		l-0.37,0.38c-1.24,1.29-2.54,2.54-3.87,3.71c-0.16,0.14-0.33,0.29-0.49,0.43l-0.09,0.07c-0.67,0.57-1.37,1.15-2.09,1.73l-0.18,0.15
		c-0.18,0.14-0.36,0.29-0.55,0.43c-0.4,0.31-0.81,0.61-1.22,0.91c-0.31,0.23-0.62,0.45-0.93,0.66l-0.05,0.03
		c-0.59,0.42-1.2,0.83-1.79,1.22c-0.36,0.24-0.73,0.47-1.1,0.7c-0.37,0.23-0.74,0.46-1.11,0.69c-0.67,0.4-1.3,0.76-1.92,1.1
		c-0.26,0.14-0.52,0.28-0.78,0.42l-0.24,0.13c-0.48,0.25-0.97,0.5-1.46,0.75l-0.29,0.14c-0.21,0.11-0.43,0.21-0.64,0.32
		c-0.68,0.32-1.4,0.65-2.18,0.99c-0.31,0.13-0.61,0.26-0.92,0.39c-0.68,0.28-1.34,0.54-1.97,0.78l-0.16,0.06
		c-0.19,0.07-0.38,0.14-0.58,0.21c-0.71,0.26-1.45,0.51-2.27,0.77c-0.27,0.09-0.54,0.17-0.82,0.26c-0.93,0.28-1.76,0.52-2.54,0.72
		c-0.09,0.02-0.17,0.04-0.26,0.06l-0.27,0.07c-0.75,0.19-1.52,0.37-2.3,0.53l-0.24,0.05c-0.15,0.03-0.29,0.06-0.44,0.09
		c-0.91,0.18-1.82,0.34-2.71,0.48c-0.12,0.02-0.24,0.04-0.36,0.05l-0.25,0.04c-0.86,0.13-1.7,0.23-2.51,0.32l-0.24,0.03l-0.21,0.02
		c-0.89,0.09-1.83,0.16-2.85,0.22c-0.21,0.01-0.41,0.02-0.66,0.03c-1.14,0.05-2.08,0.08-2.96,0.08c-0.88,0-1.82-0.02-2.96-0.08
		c-0.23-0.01-0.46-0.02-0.68-0.03c-1.05-0.06-1.98-0.13-2.86-0.22l-0.16-0.02l-0.22-0.03c-0.81-0.09-1.64-0.19-2.53-0.32l-0.21-0.03
		c-0.16-0.02-0.31-0.05-0.47-0.07c-0.93-0.15-1.84-0.31-2.71-0.48c-0.12-0.02-0.24-0.05-0.36-0.08l-0.27-0.06
		c-0.73-0.15-1.48-0.33-2.22-0.51l-0.28-0.07c-0.14-0.03-0.28-0.07-0.42-0.1c-0.81-0.21-1.66-0.45-2.52-0.71
		c-0.21-0.06-0.42-0.13-0.62-0.2l-0.2-0.06c-0.64-0.2-1.3-0.43-1.95-0.66l-0.32-0.11c-0.14-0.05-0.27-0.09-0.41-0.14
		c-0.69-0.25-1.44-0.55-2.29-0.9c-0.33-0.14-0.65-0.28-0.98-0.42c-0.56-0.24-1.12-0.5-1.67-0.75c-0.44-0.21-0.88-0.42-1.32-0.64
		c-0.51-0.25-1.02-0.51-1.52-0.78c-0.38-0.2-0.75-0.4-1.13-0.61c-0.45-0.25-0.89-0.51-1.33-0.76c-0.58-0.34-1.16-0.69-1.73-1.05
		c-0.33-0.21-0.66-0.42-0.98-0.63c-0.42-0.27-0.84-0.55-1.25-0.84c-0.16-0.11-0.31-0.22-0.47-0.33l-0.27-0.19
		c-0.77-0.55-1.52-1.1-2.21-1.64c-0.21-0.16-0.41-0.32-0.61-0.48c-1.42-1.13-2.8-2.33-4.1-3.56l-0.24-0.23l-0.08-0.07
		c-1.38-1.32-2.71-2.7-3.96-4.13l-0.05-0.05c-1.44-1.64-2.79-3.37-4.06-5.15c5.12-2.36,10.97-4.34,17.45-5.91l0.19-0.04l0.21-0.05
		c0.97-0.23,1.94-0.45,2.89-0.65l0.47-0.1l0.29-0.06c0.86-0.18,1.73-0.35,2.62-0.52c0.28-0.05,0.56-0.1,0.84-0.15l0.17-0.03
		c0.81-0.14,1.63-0.28,2.46-0.42c0.39-0.06,0.79-0.12,1.18-0.18c0.79-0.12,1.58-0.23,2.38-0.34c0.44-0.06,0.87-0.12,1.31-0.17
		c0.77-0.1,1.55-0.18,2.34-0.27l0.25-0.03c0.38-0.04,0.76-0.08,1.15-0.12c0.78-0.08,1.56-0.14,2.35-0.21l0.42-0.04
		c0.34-0.03,0.68-0.06,1.02-0.08c0.8-0.06,1.61-0.11,2.41-0.15l0.51-0.03c0.3-0.02,0.61-0.04,0.91-0.05
		c0.87-0.04,1.76-0.07,2.64-0.1l0.53-0.02c0.24-0.01,0.48-0.02,0.72-0.02C96.92,125.02,98.24,125,99.5,125 M99.5,122
		c-1.34,0-2.68,0.02-4.01,0.05c-0.43,0.01-0.85,0.03-1.27,0.04c-0.9,0.03-1.8,0.06-2.69,0.1c-0.49,0.02-0.97,0.06-1.45,0.08
		c-0.82,0.05-1.65,0.1-2.46,0.16c-0.49,0.04-0.98,0.08-1.47,0.12c-0.8,0.07-1.6,0.13-2.39,0.21c-0.48,0.05-0.95,0.1-1.42,0.15
		c-0.8,0.09-1.6,0.18-2.38,0.27c-0.45,0.06-0.89,0.11-1.34,0.17c-0.81,0.11-1.62,0.22-2.43,0.34c-0.4,0.06-0.81,0.12-1.21,0.19
		c-0.85,0.13-1.68,0.28-2.52,0.42c-0.34,0.06-0.69,0.12-1.03,0.18c-0.9,0.17-1.79,0.34-2.68,0.53c-0.26,0.05-0.52,0.11-0.78,0.16
		c-1,0.21-1.98,0.44-2.96,0.67c-0.13,0.03-0.27,0.06-0.4,0.09c-8.03,1.95-15.2,4.55-21.15,7.65c0,0,0,0,0,0c0,0,0,0,0,0
		c1.86,2.93,3.93,5.7,6.21,8.3c0.02,0.03,0.05,0.05,0.07,0.08c1.31,1.49,2.69,2.93,4.12,4.3c0.11,0.11,0.22,0.22,0.34,0.32
		c1.38,1.3,2.81,2.54,4.29,3.72c0.21,0.17,0.43,0.34,0.64,0.51c0.76,0.59,1.53,1.16,2.31,1.72c0.26,0.18,0.51,0.37,0.77,0.55
		c0.43,0.3,0.87,0.59,1.31,0.87c0.34,0.22,0.69,0.44,1.03,0.66c0.6,0.38,1.2,0.74,1.81,1.1c0.46,0.27,0.92,0.54,1.39,0.8
		c0.39,0.22,0.78,0.43,1.18,0.64c0.53,0.28,1.06,0.55,1.59,0.82c0.46,0.23,0.92,0.45,1.38,0.67c0.58,0.27,1.16,0.54,1.75,0.79
		c0.34,0.15,0.68,0.29,1.03,0.44c0.79,0.33,1.59,0.65,2.4,0.95c0.25,0.09,0.51,0.18,0.77,0.27c0.68,0.24,1.36,0.47,2.04,0.69
		c0.29,0.09,0.57,0.19,0.86,0.27c0.87,0.27,1.75,0.52,2.63,0.75c0.24,0.06,0.48,0.12,0.73,0.18c0.77,0.19,1.55,0.37,2.33,0.54
		c0.22,0.05,0.44,0.1,0.66,0.14c0.94,0.19,1.88,0.36,2.83,0.51c0.24,0.04,0.47,0.07,0.71,0.1c0.88,0.13,1.76,0.24,2.65,0.34
		c0.13,0.01,0.26,0.03,0.4,0.05c0.99,0.1,1.99,0.17,3,0.23c0.24,0.01,0.48,0.02,0.71,0.03c1.03,0.05,2.06,0.08,3.09,0.08
		c1.04,0,2.07-0.03,3.09-0.08c0.23-0.01,0.46-0.02,0.69-0.03c1-0.06,2-0.13,2.98-0.23c0.16-0.02,0.31-0.04,0.47-0.05
		c0.88-0.09,1.76-0.21,2.63-0.33c0.21-0.03,0.43-0.06,0.64-0.09c0.95-0.15,1.9-0.32,2.83-0.51c0.24-0.05,0.47-0.1,0.71-0.15
		c0.81-0.17,1.61-0.36,2.41-0.56c0.18-0.05,0.37-0.09,0.56-0.14c0.89-0.23,1.78-0.49,2.66-0.75c0.29-0.09,0.57-0.18,0.85-0.27
		c0.8-0.25,1.59-0.52,2.37-0.8c0.26-0.09,0.51-0.19,0.77-0.29c0.69-0.26,1.38-0.53,2.06-0.81c0.32-0.13,0.64-0.27,0.96-0.4
		c0.77-0.33,1.53-0.67,2.28-1.03c0.33-0.16,0.65-0.32,0.97-0.48c0.51-0.25,1.02-0.51,1.52-0.78c0.35-0.19,0.71-0.37,1.06-0.57
		c0.68-0.37,1.35-0.76,2.01-1.15c0.39-0.23,0.78-0.48,1.17-0.72c0.39-0.24,0.77-0.49,1.15-0.73c0.63-0.41,1.26-0.84,1.88-1.27
		c0.34-0.24,0.69-0.48,1.02-0.73c0.43-0.31,0.85-0.63,1.28-0.96c0.26-0.2,0.51-0.4,0.77-0.6c0.74-0.59,1.47-1.19,2.19-1.81
		c0.2-0.17,0.41-0.35,0.61-0.53c1.4-1.24,2.76-2.53,4.05-3.88c0.13-0.13,0.25-0.27,0.38-0.4c1.32-1.4,2.59-2.86,3.79-4.36
		c0.07-0.09,0.14-0.17,0.2-0.26c0.8-1.01,1.56-2.04,2.3-3.1c0.01-0.02,0.02-0.03,0.04-0.05c0.39-0.56,0.77-1.13,1.15-1.7
		c0,0,0,0,0,0c-0.82-0.45-1.67-0.9-2.53-1.33c-0.24-0.12-0.49-0.23-0.73-0.35c-0.63-0.31-1.27-0.61-1.92-0.9
		c-0.33-0.15-0.66-0.29-1-0.43c-0.59-0.26-1.19-0.51-1.8-0.76c-0.37-0.15-0.75-0.3-1.12-0.44c-0.6-0.23-1.2-0.46-1.81-0.69
		c-0.4-0.14-0.79-0.29-1.2-0.43c-0.62-0.22-1.25-0.43-1.88-0.64c-0.41-0.13-0.82-0.27-1.23-0.4c-0.66-0.21-1.33-0.41-2.01-0.61
		c-0.4-0.12-0.8-0.24-1.21-0.35c-0.75-0.21-1.51-0.41-2.28-0.61c-0.35-0.09-0.69-0.19-1.05-0.27c-1.12-0.28-2.25-0.55-3.4-0.8
		c-0.01,0-0.02,0-0.03-0.01c-1.16-0.26-2.35-0.5-3.54-0.73c-0.37-0.07-0.75-0.13-1.12-0.2c-0.83-0.15-1.66-0.3-2.51-0.44
		c-0.46-0.08-0.93-0.14-1.4-0.22c-0.77-0.12-1.54-0.23-2.31-0.34c-0.51-0.07-1.02-0.13-1.54-0.2c-0.75-0.1-1.51-0.19-2.28-0.27
		c-0.53-0.06-1.06-0.11-1.59-0.17c-0.77-0.08-1.55-0.15-2.32-0.21c-0.53-0.05-1.06-0.09-1.6-0.13c-0.81-0.06-1.62-0.11-2.43-0.16
		c-0.52-0.03-1.03-0.06-1.55-0.09c-0.9-0.04-1.8-0.08-2.71-0.11c-0.44-0.01-0.88-0.04-1.33-0.05C102.24,122.02,100.87,122,99.5,122
		L99.5,122z"/>
</g>
<g>
	<rect x="1.5" y="1.5" class="st2" width="197" height="197"/>
	<path class="st2" d="M197,3v194H3V3H197 M200,0H0v200h200V0L200,0z"/>
</g>
<g>
	<ellipse class="st2" cx="103.5" cy="68" rx="29" ry="26.5"/>
	<path class="st3" d="M103.5,43c15.16,0,27.5,11.21,27.5,25s-12.34,25-27.5,25S76,81.79,76,68S88.34,43,103.5,43 M103.5,40
		C86.66,40,73,52.54,73,68s13.66,28,30.5,28S134,83.46,134,68S120.34,40,103.5,40L103.5,40z"/>
</g>
<g>
	<ellipse class="st2" cx="103.5" cy="68" rx="29" ry="26.5"/>
	<path class="st3" d="M103.5,43c15.16,0,27.5,11.21,27.5,25s-12.34,25-27.5,25S76,81.79,76,68S88.34,43,103.5,43 M103.5,40
		C86.66,40,73,52.54,73,68s13.66,28,30.5,28S134,83.46,134,68S120.34,40,103.5,40L103.5,40z"/>
</g>
<g>
	<path class="st2" d="M101.5,156.5c-0.9,0-1.86-0.02-3.03-0.08l-0.7-0.03c-0.99-0.05-1.96-0.13-2.94-0.22l-0.38-0.04
		c-0.88-0.09-1.74-0.2-2.6-0.33l-0.69-0.1c-0.93-0.15-1.85-0.31-2.77-0.5l-0.65-0.14c-0.76-0.16-1.52-0.34-2.27-0.52l-0.71-0.18
		c-0.87-0.23-1.73-0.47-2.58-0.73c-0.21-0.06-0.84-0.27-0.84-0.27c-0.67-0.21-1.33-0.44-1.99-0.67c0,0-0.6-0.21-0.75-0.26
		c-0.79-0.29-1.57-0.61-2.35-0.93c-0.34-0.14-0.67-0.28-1-0.43c-0.57-0.25-1.14-0.51-1.71-0.77c-0.46-0.21-0.91-0.43-1.35-0.65
		c-0.52-0.26-1.04-0.53-1.56-0.8c-0.38-0.2-0.77-0.41-1.15-0.62c-0.46-0.25-0.91-0.52-1.36-0.78c-0.59-0.35-1.18-0.71-1.77-1.08
		c-0.34-0.21-0.68-0.43-1.01-0.65c-0.43-0.28-0.85-0.56-1.28-0.85c-0.18-0.12-0.75-0.54-0.75-0.54c-0.77-0.55-1.52-1.1-2.26-1.68
		l-0.63-0.49c-1.45-1.16-2.86-2.38-4.2-3.64l-0.33-0.32c-1.41-1.35-2.77-2.76-4.03-4.2l-0.07-0.08c-1.86-2.13-3.59-4.39-5.16-6.73
		c5.58-2.74,12.07-5.01,19.33-6.77l0.4-0.09c0.96-0.23,1.94-0.45,2.92-0.66l0.77-0.16c0.87-0.18,1.75-0.36,2.65-0.52l1.02-0.18
		c0.82-0.15,1.65-0.29,2.49-0.42l1.19-0.18c0.79-0.12,1.6-0.23,2.4-0.34c0.44-0.06,0.88-0.12,1.32-0.17
		c0.79-0.1,1.57-0.19,2.36-0.27c0,0,1.01-0.11,1.41-0.15c0.79-0.08,1.58-0.15,2.37-0.21c0,0,1.11-0.09,1.45-0.12
		c0.81-0.06,1.62-0.11,2.44-0.15l0.45-0.03c0.33-0.02,0.65-0.04,0.98-0.06c0.88-0.04,1.77-0.07,2.67-0.1c0,0,1.02-0.04,1.26-0.04
		c1.31-0.03,2.64-0.05,3.97-0.05c1.36,0,2.71,0.02,4.05,0.05l1.32,0.05c0.9,0.03,1.79,0.06,2.68,0.1c0.36,0.02,1.54,0.09,1.54,0.09
		c0.8,0.05,1.61,0.1,2.41,0.16c0.53,0.04,1.06,0.08,1.59,0.13c0.77,0.07,1.54,0.13,2.3,0.21c0.53,0.05,1.05,0.11,1.57,0.17
		c0.76,0.08,1.51,0.17,2.26,0.27c0,0,1.1,0.14,1.52,0.2c0.77,0.11,1.53,0.22,2.29,0.34c0,0,1.04,0.16,1.39,0.21
		c0.84,0.14,1.66,0.28,2.48,0.43l1.11,0.2c1.18,0.23,2.35,0.46,3.5,0.72c1.17,0.26,2.28,0.52,3.38,0.8l1.03,0.27
		c0.75,0.2,1.51,0.39,2.25,0.6c0.31,0.09,1.19,0.35,1.19,0.35c0.67,0.2,1.33,0.39,1.98,0.6c0.41,0.13,0.81,0.26,1.21,0.39
		c0.63,0.21,1.25,0.42,1.86,0.63c0.4,0.14,0.79,0.28,1.18,0.42c0.6,0.22,1.2,0.45,1.78,0.68c0.37,0.15,0.74,0.29,1.11,0.44
		c0.6,0.24,1.18,0.49,1.76,0.75c0,0,0.76,0.33,0.98,0.42c0.64,0.29,1.26,0.59,1.88,0.89l0.72,0.34c0.35,0.17,0.69,0.35,1.03,0.53
		c-0.07,0.1-0.14,0.2-0.21,0.3c-0.74,1.05-1.49,2.07-2.29,3.08l-0.2,0.26c-1.15,1.45-2.4,2.88-3.7,4.26l-0.38,0.39
		c-1.26,1.31-2.59,2.59-3.96,3.79l-0.59,0.51c-0.7,0.6-1.42,1.19-2.14,1.77c0,0-0.53,0.42-0.75,0.59c-0.41,0.32-0.83,0.63-1.25,0.93
		c-0.33,0.24-0.66,0.48-1,0.71c-0.61,0.43-1.22,0.84-1.84,1.25c-0.37,0.24-0.75,0.48-1.12,0.72c-0.38,0.24-0.76,0.47-1.14,0.7
		c-0.65,0.38-1.3,0.76-1.96,1.13c-0.27,0.15-0.54,0.29-0.81,0.43l-0.23,0.12c-0.49,0.26-0.99,0.52-1.49,0.76
		c0,0-0.73,0.36-0.95,0.47c-0.74,0.35-1.48,0.69-2.23,1.01c-0.31,0.13-0.63,0.27-0.94,0.4c-0.67,0.28-1.34,0.54-2.02,0.8l-0.75,0.28
		c-0.77,0.28-1.54,0.54-2.32,0.79c-0.28,0.09-0.56,0.18-0.83,0.26c-0.86,0.26-1.72,0.51-2.6,0.74l-0.55,0.13
		c-0.78,0.2-1.56,0.38-2.36,0.54l-0.69,0.15c-0.91,0.18-1.84,0.35-2.77,0.49l-0.63,0.09c-0.85,0.13-1.71,0.24-2.57,0.33l-0.46,0.05
		c-0.97,0.1-1.94,0.17-2.92,0.22l-0.68,0.03C103.36,156.48,102.4,156.5,101.5,156.5z"/>
	<path class="st3" d="M100.5,118c1.28,0,2.59,0.02,4.02,0.05c0.26,0.01,0.52,0.02,0.78,0.03l0.53,0.02c0.89,0.03,1.78,0.06,2.66,0.1
		c0.37,0.02,0.73,0.04,1.1,0.06l0.42,0.03c0.8,0.05,1.59,0.1,2.38,0.16c0.52,0.04,1.04,0.08,1.57,0.13
		c0.76,0.06,1.52,0.13,2.28,0.21c0.52,0.05,1.04,0.11,1.56,0.16c0.75,0.08,1.49,0.17,2.23,0.27l0.07,0.01
		c0.48,0.06,0.96,0.12,1.43,0.19c0.76,0.1,1.51,0.22,2.26,0.33l0.42,0.06c0.32,0.05,0.64,0.1,0.95,0.15
		c0.83,0.14,1.64,0.28,2.45,0.43l0.47,0.08c0.21,0.04,0.42,0.07,0.63,0.11c1.23,0.24,2.37,0.47,3.43,0.7l0.04,0.01l0.02,0.01
		c1.07,0.24,2.16,0.49,3.31,0.78c0.2,0.05,0.4,0.1,0.59,0.15l0.43,0.11c0.75,0.19,1.49,0.39,2.22,0.59
		c0.28,0.08,0.56,0.16,0.83,0.24l0.35,0.1c0.66,0.19,1.31,0.39,1.95,0.59c0.39,0.12,0.78,0.25,1.2,0.39
		c0.62,0.2,1.22,0.41,1.83,0.62c0.39,0.14,0.78,0.28,1.16,0.42c0.59,0.22,1.18,0.44,1.75,0.66l0.11,0.04
		c0.33,0.13,0.66,0.26,0.98,0.39c0.59,0.24,1.16,0.49,1.73,0.73l0.33,0.14c0.21,0.09,0.43,0.18,0.63,0.28
		c0.63,0.28,1.24,0.57,1.84,0.87l0.17,0.08c-0.46,0.63-0.94,1.26-1.43,1.89l-0.09,0.11l-0.11,0.14c-1.13,1.42-2.35,2.83-3.62,4.17
		l-0.37,0.38c-1.24,1.29-2.54,2.54-3.87,3.71c-0.16,0.14-0.33,0.29-0.49,0.43l-0.09,0.07c-0.67,0.57-1.37,1.15-2.09,1.73l-0.18,0.15
		c-0.18,0.14-0.36,0.29-0.55,0.43c-0.4,0.31-0.81,0.61-1.22,0.91c-0.31,0.23-0.62,0.45-0.93,0.66l-0.05,0.03
		c-0.59,0.42-1.2,0.83-1.79,1.22c-0.36,0.24-0.73,0.47-1.1,0.7c-0.37,0.23-0.74,0.46-1.11,0.69c-0.67,0.4-1.3,0.76-1.92,1.1
		c-0.26,0.14-0.52,0.28-0.78,0.42l-0.24,0.13c-0.48,0.25-0.97,0.5-1.46,0.75l-0.29,0.14c-0.21,0.11-0.43,0.21-0.64,0.32
		c-0.68,0.32-1.4,0.65-2.18,0.99c-0.31,0.13-0.61,0.26-0.92,0.39c-0.68,0.28-1.34,0.54-1.97,0.78l-0.16,0.06
		c-0.19,0.07-0.38,0.14-0.58,0.21c-0.71,0.26-1.45,0.51-2.27,0.77c-0.27,0.09-0.54,0.17-0.82,0.26c-0.93,0.28-1.76,0.52-2.54,0.72
		c-0.09,0.02-0.17,0.04-0.26,0.06l-0.27,0.07c-0.75,0.19-1.52,0.37-2.3,0.53l-0.24,0.05c-0.15,0.03-0.29,0.06-0.44,0.09
		c-0.91,0.18-1.82,0.34-2.71,0.48c-0.12,0.02-0.24,0.04-0.36,0.05l-0.25,0.04c-0.86,0.13-1.7,0.23-2.51,0.32l-0.24,0.03l-0.21,0.02
		c-0.89,0.09-1.83,0.16-2.85,0.22c-0.21,0.01-0.41,0.02-0.66,0.03c-1.14,0.05-2.08,0.08-2.96,0.08c-0.88,0-1.82-0.02-2.96-0.08
		c-0.23-0.01-0.46-0.02-0.68-0.03c-1.05-0.06-1.98-0.13-2.86-0.22l-0.16-0.02l-0.22-0.03c-0.81-0.09-1.64-0.19-2.53-0.32l-0.21-0.03
		c-0.16-0.02-0.31-0.05-0.47-0.07c-0.93-0.15-1.84-0.31-2.71-0.48c-0.12-0.02-0.24-0.05-0.36-0.08l-0.27-0.06
		c-0.73-0.15-1.48-0.33-2.22-0.51l-0.28-0.07c-0.14-0.03-0.28-0.07-0.42-0.1c-0.81-0.21-1.66-0.45-2.52-0.71
		c-0.21-0.06-0.42-0.13-0.62-0.2l-0.2-0.06c-0.64-0.2-1.3-0.43-1.95-0.66l-0.32-0.11c-0.14-0.05-0.27-0.09-0.41-0.14
		c-0.69-0.25-1.44-0.55-2.29-0.9c-0.33-0.14-0.65-0.28-0.98-0.42c-0.56-0.24-1.12-0.5-1.67-0.75c-0.44-0.21-0.88-0.42-1.32-0.64
		c-0.51-0.25-1.02-0.51-1.52-0.78c-0.38-0.2-0.75-0.4-1.13-0.61c-0.45-0.25-0.89-0.51-1.33-0.76c-0.58-0.34-1.16-0.69-1.73-1.05
		c-0.33-0.21-0.66-0.42-0.98-0.63c-0.42-0.27-0.84-0.55-1.25-0.84c-0.16-0.11-0.31-0.22-0.47-0.33l-0.27-0.19
		c-0.77-0.55-1.52-1.1-2.21-1.64c-0.21-0.16-0.41-0.32-0.61-0.48c-1.42-1.13-2.8-2.33-4.1-3.56l-0.24-0.23l-0.08-0.07
		c-1.38-1.32-2.71-2.7-3.96-4.13l-0.05-0.05c-1.44-1.64-2.79-3.37-4.06-5.15c5.12-2.36,10.97-4.34,17.45-5.91l0.19-0.04l0.21-0.05
		c0.97-0.23,1.94-0.45,2.89-0.65l0.47-0.1l0.29-0.06c0.86-0.18,1.73-0.35,2.62-0.52c0.28-0.05,0.56-0.1,0.84-0.15l0.17-0.03
		c0.81-0.14,1.63-0.28,2.46-0.42c0.39-0.06,0.79-0.12,1.18-0.18c0.79-0.12,1.58-0.23,2.38-0.34c0.44-0.06,0.87-0.12,1.31-0.17
		c0.77-0.1,1.55-0.18,2.34-0.27l0.25-0.03c0.38-0.04,0.76-0.08,1.15-0.12c0.78-0.08,1.56-0.14,2.35-0.21l0.42-0.04
		c0.34-0.03,0.68-0.06,1.02-0.08c0.8-0.06,1.61-0.11,2.41-0.15l0.51-0.03c0.3-0.02,0.61-0.04,0.91-0.05
		c0.87-0.04,1.76-0.07,2.64-0.1l0.53-0.02c0.24-0.01,0.48-0.02,0.72-0.02C97.92,118.02,99.24,118,100.5,118 M100.5,115
		c-1.34,0-2.68,0.02-4.01,0.05c-0.43,0.01-0.85,0.03-1.27,0.04c-0.9,0.03-1.8,0.06-2.69,0.1c-0.49,0.02-0.97,0.06-1.45,0.08
		c-0.82,0.05-1.65,0.1-2.46,0.16c-0.49,0.04-0.98,0.08-1.47,0.12c-0.8,0.07-1.6,0.13-2.39,0.21c-0.48,0.05-0.95,0.1-1.42,0.15
		c-0.8,0.09-1.6,0.18-2.38,0.27c-0.45,0.06-0.89,0.11-1.34,0.17c-0.81,0.11-1.62,0.22-2.43,0.34c-0.4,0.06-0.81,0.12-1.21,0.19
		c-0.85,0.13-1.68,0.28-2.52,0.42c-0.34,0.06-0.69,0.12-1.03,0.18c-0.9,0.17-1.79,0.34-2.68,0.53c-0.26,0.05-0.52,0.11-0.78,0.16
		c-1,0.21-1.98,0.44-2.96,0.67c-0.13,0.03-0.27,0.06-0.4,0.09c-8.03,1.95-15.2,4.55-21.15,7.65c0,0,0,0,0,0c0,0,0,0,0,0
		c1.86,2.93,3.93,5.7,6.21,8.3c0.02,0.03,0.05,0.05,0.07,0.08c1.31,1.49,2.69,2.93,4.12,4.3c0.11,0.11,0.22,0.22,0.34,0.32
		c1.38,1.3,2.81,2.54,4.29,3.72c0.21,0.17,0.43,0.34,0.64,0.51c0.76,0.59,1.53,1.16,2.31,1.72c0.26,0.18,0.51,0.37,0.77,0.55
		c0.43,0.3,0.87,0.59,1.31,0.87c0.34,0.22,0.69,0.44,1.03,0.66c0.6,0.38,1.2,0.74,1.81,1.1c0.46,0.27,0.92,0.54,1.39,0.8
		c0.39,0.22,0.78,0.43,1.18,0.64c0.53,0.28,1.06,0.55,1.59,0.82c0.46,0.23,0.92,0.45,1.38,0.67c0.58,0.27,1.16,0.54,1.75,0.79
		c0.34,0.15,0.68,0.29,1.03,0.44c0.79,0.33,1.59,0.65,2.4,0.95c0.25,0.09,0.51,0.18,0.77,0.27c0.68,0.24,1.36,0.47,2.04,0.69
		c0.29,0.09,0.57,0.19,0.86,0.27c0.87,0.27,1.75,0.52,2.63,0.75c0.24,0.06,0.48,0.12,0.73,0.18c0.77,0.19,1.55,0.37,2.33,0.54
		c0.22,0.05,0.44,0.1,0.66,0.14c0.94,0.19,1.88,0.36,2.83,0.51c0.24,0.04,0.47,0.07,0.71,0.1c0.88,0.13,1.76,0.24,2.65,0.34
		c0.13,0.01,0.26,0.03,0.4,0.05c0.99,0.1,1.99,0.17,3,0.23c0.24,0.01,0.48,0.02,0.71,0.03c1.03,0.05,2.06,0.08,3.09,0.08
		c1.04,0,2.07-0.03,3.09-0.08c0.23-0.01,0.46-0.02,0.69-0.03c1-0.06,2-0.13,2.98-0.23c0.16-0.02,0.31-0.04,0.47-0.05
		c0.88-0.09,1.76-0.21,2.63-0.33c0.21-0.03,0.43-0.06,0.64-0.09c0.95-0.15,1.9-0.32,2.83-0.51c0.24-0.05,0.47-0.1,0.71-0.15
		c0.81-0.17,1.61-0.36,2.41-0.56c0.18-0.05,0.37-0.09,0.56-0.14c0.89-0.23,1.78-0.49,2.66-0.75c0.29-0.09,0.57-0.18,0.85-0.27
		c0.8-0.25,1.59-0.52,2.37-0.8c0.26-0.09,0.51-0.19,0.77-0.29c0.69-0.26,1.38-0.53,2.06-0.81c0.32-0.13,0.64-0.27,0.96-0.4
		c0.77-0.33,1.53-0.67,2.28-1.03c0.33-0.16,0.65-0.32,0.97-0.48c0.51-0.25,1.02-0.51,1.52-0.78c0.35-0.19,0.71-0.37,1.06-0.57
		c0.68-0.37,1.35-0.76,2.01-1.15c0.39-0.23,0.78-0.48,1.17-0.72c0.39-0.24,0.77-0.49,1.15-0.73c0.63-0.41,1.26-0.84,1.88-1.27
		c0.34-0.24,0.69-0.48,1.02-0.73c0.43-0.31,0.85-0.63,1.28-0.96c0.26-0.2,0.51-0.4,0.77-0.6c0.74-0.59,1.47-1.19,2.19-1.81
		c0.2-0.17,0.41-0.35,0.61-0.53c1.4-1.24,2.76-2.53,4.05-3.88c0.13-0.13,0.25-0.27,0.38-0.4c1.32-1.4,2.59-2.86,3.79-4.36
		c0.07-0.09,0.14-0.17,0.2-0.26c0.8-1.01,1.56-2.04,2.3-3.1c0.01-0.02,0.02-0.03,0.04-0.05c0.39-0.56,0.77-1.13,1.15-1.7
		c0,0,0,0,0,0c-0.82-0.45-1.67-0.9-2.53-1.33c-0.24-0.12-0.49-0.23-0.73-0.35c-0.63-0.31-1.27-0.61-1.92-0.9
		c-0.33-0.15-0.66-0.29-1-0.43c-0.59-0.26-1.19-0.51-1.8-0.76c-0.37-0.15-0.75-0.3-1.12-0.44c-0.6-0.23-1.2-0.46-1.81-0.69
		c-0.4-0.14-0.79-0.29-1.2-0.43c-0.62-0.22-1.25-0.43-1.88-0.64c-0.41-0.13-0.82-0.27-1.23-0.4c-0.66-0.21-1.33-0.41-2.01-0.61
		c-0.4-0.12-0.8-0.24-1.21-0.35c-0.75-0.21-1.51-0.41-2.28-0.61c-0.35-0.09-0.69-0.19-1.05-0.27c-1.12-0.28-2.25-0.55-3.4-0.8
		c-0.01,0-0.02,0-0.03-0.01c-1.16-0.26-2.35-0.5-3.54-0.73c-0.37-0.07-0.75-0.13-1.12-0.2c-0.83-0.15-1.66-0.3-2.51-0.44
		c-0.46-0.08-0.93-0.14-1.4-0.22c-0.77-0.12-1.54-0.23-2.31-0.34c-0.51-0.07-1.02-0.13-1.54-0.2c-0.75-0.1-1.51-0.19-2.28-0.27
		c-0.53-0.06-1.06-0.11-1.59-0.17c-0.77-0.08-1.55-0.15-2.32-0.21c-0.53-0.05-1.06-0.09-1.6-0.13c-0.81-0.06-1.62-0.11-2.43-0.16
		c-0.52-0.03-1.03-0.06-1.55-0.09c-0.9-0.04-1.8-0.08-2.71-0.11c-0.44-0.01-0.88-0.04-1.33-0.05C103.24,115.02,101.87,115,100.5,115
		L100.5,115z"/>
</g>
<g>
	<ellipse class="st2" cx="103.5" cy="68" rx="29" ry="26.5"/>
	<path class="st3" d="M103.5,43c15.16,0,27.5,11.21,27.5,25s-12.34,25-27.5,25S76,81.79,76,68S88.34,43,103.5,43 M103.5,40
		C86.66,40,73,52.54,73,68s13.66,28,30.5,28S134,83.46,134,68S120.34,40,103.5,40L103.5,40z"/>
</g>
<g>
	<ellipse class="st2" cx="103.5" cy="68" rx="29" ry="26.5"/>
	<path class="st3" d="M103.5,43c15.16,0,27.5,11.21,27.5,25s-12.34,25-27.5,25S76,81.79,76,68S88.34,43,103.5,43 M103.5,40
		C86.66,40,73,52.54,73,68s13.66,28,30.5,28S134,83.46,134,68S120.34,40,103.5,40L103.5,40z"/>
</g>
<g>
	<path class="st2" d="M101.5,156.5c-0.9,0-1.86-0.02-3.03-0.08l-0.7-0.03c-0.99-0.05-1.96-0.13-2.94-0.22l-0.38-0.04
		c-0.88-0.09-1.74-0.2-2.6-0.33l-0.69-0.1c-0.93-0.15-1.85-0.31-2.77-0.5l-0.65-0.14c-0.76-0.16-1.52-0.34-2.27-0.52l-0.71-0.18
		c-0.87-0.23-1.73-0.47-2.58-0.73c-0.21-0.06-0.84-0.27-0.84-0.27c-0.67-0.21-1.33-0.44-1.99-0.67c0,0-0.6-0.21-0.75-0.26
		c-0.79-0.29-1.57-0.61-2.35-0.93c-0.34-0.14-0.67-0.28-1-0.43c-0.57-0.25-1.14-0.51-1.71-0.77c-0.46-0.21-0.91-0.43-1.35-0.65
		c-0.52-0.26-1.04-0.53-1.56-0.8c-0.38-0.2-0.77-0.41-1.15-0.62c-0.46-0.25-0.91-0.52-1.36-0.78c-0.59-0.35-1.18-0.71-1.77-1.08
		c-0.34-0.21-0.68-0.43-1.01-0.65c-0.43-0.28-0.85-0.56-1.28-0.85c-0.18-0.12-0.75-0.54-0.75-0.54c-0.77-0.55-1.52-1.1-2.26-1.68
		l-0.63-0.49c-1.45-1.16-2.86-2.38-4.2-3.64l-0.33-0.32c-1.41-1.35-2.77-2.76-4.03-4.2l-0.07-0.08c-1.86-2.13-3.59-4.39-5.16-6.73
		c5.58-2.74,12.07-5.01,19.33-6.77l0.4-0.09c0.96-0.23,1.94-0.45,2.92-0.66l0.77-0.16c0.87-0.18,1.75-0.36,2.65-0.52l1.02-0.18
		c0.82-0.15,1.65-0.29,2.49-0.42l1.19-0.18c0.79-0.12,1.6-0.23,2.4-0.34c0.44-0.06,0.88-0.12,1.32-0.17
		c0.79-0.1,1.57-0.19,2.36-0.27c0,0,1.01-0.11,1.41-0.15c0.79-0.08,1.58-0.15,2.37-0.21c0,0,1.11-0.09,1.45-0.12
		c0.81-0.06,1.62-0.11,2.44-0.15l0.45-0.03c0.33-0.02,0.65-0.04,0.98-0.06c0.88-0.04,1.77-0.07,2.67-0.1c0,0,1.02-0.04,1.26-0.04
		c1.31-0.03,2.64-0.05,3.97-0.05c1.36,0,2.71,0.02,4.05,0.05l1.32,0.05c0.9,0.03,1.79,0.06,2.68,0.1c0.36,0.02,1.54,0.09,1.54,0.09
		c0.8,0.05,1.61,0.1,2.41,0.16c0.53,0.04,1.06,0.08,1.59,0.13c0.77,0.07,1.54,0.13,2.3,0.21c0.53,0.05,1.05,0.11,1.57,0.17
		c0.76,0.08,1.51,0.17,2.26,0.27c0,0,1.1,0.14,1.52,0.2c0.77,0.11,1.53,0.22,2.29,0.34c0,0,1.04,0.16,1.39,0.21
		c0.84,0.14,1.66,0.28,2.48,0.43l1.11,0.2c1.18,0.23,2.35,0.46,3.5,0.72c1.17,0.26,2.28,0.52,3.38,0.8l1.03,0.27
		c0.75,0.2,1.51,0.39,2.25,0.6c0.31,0.09,1.19,0.35,1.19,0.35c0.67,0.2,1.33,0.39,1.98,0.6c0.41,0.13,0.81,0.26,1.21,0.39
		c0.63,0.21,1.25,0.42,1.86,0.63c0.4,0.14,0.79,0.28,1.18,0.42c0.6,0.22,1.2,0.45,1.78,0.68c0.37,0.15,0.74,0.29,1.11,0.44
		c0.6,0.24,1.18,0.49,1.76,0.75c0,0,0.76,0.33,0.98,0.42c0.64,0.29,1.26,0.59,1.88,0.89l0.72,0.34c0.35,0.17,0.69,0.35,1.03,0.53
		c-0.07,0.1-0.14,0.2-0.21,0.3c-0.74,1.05-1.49,2.07-2.29,3.08l-0.2,0.26c-1.15,1.45-2.4,2.88-3.7,4.26l-0.38,0.39
		c-1.26,1.31-2.59,2.59-3.96,3.79l-0.59,0.51c-0.7,0.6-1.42,1.19-2.14,1.77c0,0-0.53,0.42-0.75,0.59c-0.41,0.32-0.83,0.63-1.25,0.93
		c-0.33,0.24-0.66,0.48-1,0.71c-0.61,0.43-1.22,0.84-1.84,1.25c-0.37,0.24-0.75,0.48-1.12,0.72c-0.38,0.24-0.76,0.47-1.14,0.7
		c-0.65,0.38-1.3,0.76-1.96,1.13c-0.27,0.15-0.54,0.29-0.81,0.43l-0.23,0.12c-0.49,0.26-0.99,0.52-1.49,0.76
		c0,0-0.73,0.36-0.95,0.47c-0.74,0.35-1.48,0.69-2.23,1.01c-0.31,0.13-0.63,0.27-0.94,0.4c-0.67,0.28-1.34,0.54-2.02,0.8l-0.75,0.28
		c-0.77,0.28-1.54,0.54-2.32,0.79c-0.28,0.09-0.56,0.18-0.83,0.26c-0.86,0.26-1.72,0.51-2.6,0.74l-0.55,0.13
		c-0.78,0.2-1.56,0.38-2.36,0.54l-0.69,0.15c-0.91,0.18-1.84,0.35-2.77,0.49l-0.63,0.09c-0.85,0.13-1.71,0.24-2.57,0.33l-0.46,0.05
		c-0.97,0.1-1.94,0.17-2.92,0.22l-0.68,0.03C103.36,156.48,102.4,156.5,101.5,156.5z"/>
	<path class="st3" d="M100.5,118c1.28,0,2.59,0.02,4.02,0.05c0.26,0.01,0.52,0.02,0.78,0.03l0.53,0.02c0.89,0.03,1.78,0.06,2.66,0.1
		c0.37,0.02,0.73,0.04,1.1,0.06l0.42,0.03c0.8,0.05,1.59,0.1,2.38,0.16c0.52,0.04,1.04,0.08,1.57,0.13
		c0.76,0.06,1.52,0.13,2.28,0.21c0.52,0.05,1.04,0.11,1.56,0.16c0.75,0.08,1.49,0.17,2.23,0.27l0.07,0.01
		c0.48,0.06,0.96,0.12,1.43,0.19c0.76,0.1,1.51,0.22,2.26,0.33l0.42,0.06c0.32,0.05,0.64,0.1,0.95,0.15
		c0.83,0.14,1.64,0.28,2.45,0.43l0.47,0.08c0.21,0.04,0.42,0.07,0.63,0.11c1.23,0.24,2.37,0.47,3.43,0.7l0.04,0.01l0.02,0.01
		c1.07,0.24,2.16,0.49,3.31,0.78c0.2,0.05,0.4,0.1,0.59,0.15l0.43,0.11c0.75,0.19,1.49,0.39,2.22,0.59
		c0.28,0.08,0.56,0.16,0.83,0.24l0.35,0.1c0.66,0.19,1.31,0.39,1.95,0.59c0.39,0.12,0.78,0.25,1.2,0.39
		c0.62,0.2,1.22,0.41,1.83,0.62c0.39,0.14,0.78,0.28,1.16,0.42c0.59,0.22,1.18,0.44,1.75,0.66l0.11,0.04
		c0.33,0.13,0.66,0.26,0.98,0.39c0.59,0.24,1.16,0.49,1.73,0.73l0.33,0.14c0.21,0.09,0.43,0.18,0.63,0.28
		c0.63,0.28,1.24,0.57,1.84,0.87l0.17,0.08c-0.46,0.63-0.94,1.26-1.43,1.89l-0.09,0.11l-0.11,0.14c-1.13,1.42-2.35,2.83-3.62,4.17
		l-0.37,0.38c-1.24,1.29-2.54,2.54-3.87,3.71c-0.16,0.14-0.33,0.29-0.49,0.43l-0.09,0.07c-0.67,0.57-1.37,1.15-2.09,1.73l-0.18,0.15
		c-0.18,0.14-0.36,0.29-0.55,0.43c-0.4,0.31-0.81,0.61-1.22,0.91c-0.31,0.23-0.62,0.45-0.93,0.66l-0.05,0.03
		c-0.59,0.42-1.2,0.83-1.79,1.22c-0.36,0.24-0.73,0.47-1.1,0.7c-0.37,0.23-0.74,0.46-1.11,0.69c-0.67,0.4-1.3,0.76-1.92,1.1
		c-0.26,0.14-0.52,0.28-0.78,0.42l-0.24,0.13c-0.48,0.25-0.97,0.5-1.46,0.75l-0.29,0.14c-0.21,0.11-0.43,0.21-0.64,0.32
		c-0.68,0.32-1.4,0.65-2.18,0.99c-0.31,0.13-0.61,0.26-0.92,0.39c-0.68,0.28-1.34,0.54-1.97,0.78l-0.16,0.06
		c-0.19,0.07-0.38,0.14-0.58,0.21c-0.71,0.26-1.45,0.51-2.27,0.77c-0.27,0.09-0.54,0.17-0.82,0.26c-0.93,0.28-1.76,0.52-2.54,0.72
		c-0.09,0.02-0.17,0.04-0.26,0.06l-0.27,0.07c-0.75,0.19-1.52,0.37-2.3,0.53l-0.24,0.05c-0.15,0.03-0.29,0.06-0.44,0.09
		c-0.91,0.18-1.82,0.34-2.71,0.48c-0.12,0.02-0.24,0.04-0.36,0.05l-0.25,0.04c-0.86,0.13-1.7,0.23-2.51,0.32l-0.24,0.03l-0.21,0.02
		c-0.89,0.09-1.83,0.16-2.85,0.22c-0.21,0.01-0.41,0.02-0.66,0.03c-1.14,0.05-2.08,0.08-2.96,0.08c-0.88,0-1.82-0.02-2.96-0.08
		c-0.23-0.01-0.46-0.02-0.68-0.03c-1.05-0.06-1.98-0.13-2.86-0.22l-0.16-0.02l-0.22-0.03c-0.81-0.09-1.64-0.19-2.53-0.32l-0.21-0.03
		c-0.16-0.02-0.31-0.05-0.47-0.07c-0.93-0.15-1.84-0.31-2.71-0.48c-0.12-0.02-0.24-0.05-0.36-0.08l-0.27-0.06
		c-0.73-0.15-1.48-0.33-2.22-0.51l-0.28-0.07c-0.14-0.03-0.28-0.07-0.42-0.1c-0.81-0.21-1.66-0.45-2.52-0.71
		c-0.21-0.06-0.42-0.13-0.62-0.2l-0.2-0.06c-0.64-0.2-1.3-0.43-1.95-0.66l-0.32-0.11c-0.14-0.05-0.27-0.09-0.41-0.14
		c-0.69-0.25-1.44-0.55-2.29-0.9c-0.33-0.14-0.65-0.28-0.98-0.42c-0.56-0.24-1.12-0.5-1.67-0.75c-0.44-0.21-0.88-0.42-1.32-0.64
		c-0.51-0.25-1.02-0.51-1.52-0.78c-0.38-0.2-0.75-0.4-1.13-0.61c-0.45-0.25-0.89-0.51-1.33-0.76c-0.58-0.34-1.16-0.69-1.73-1.05
		c-0.33-0.21-0.66-0.42-0.98-0.63c-0.42-0.27-0.84-0.55-1.25-0.84c-0.16-0.11-0.31-0.22-0.47-0.33l-0.27-0.19
		c-0.77-0.55-1.52-1.1-2.21-1.64c-0.21-0.16-0.41-0.32-0.61-0.48c-1.42-1.13-2.8-2.33-4.1-3.56l-0.24-0.23l-0.08-0.07
		c-1.38-1.32-2.71-2.7-3.96-4.13l-0.05-0.05c-1.44-1.64-2.79-3.37-4.06-5.15c5.12-2.36,10.97-4.34,17.45-5.91l0.19-0.04l0.21-0.05
		c0.97-0.23,1.94-0.45,2.89-0.65l0.47-0.1l0.29-0.06c0.86-0.18,1.73-0.35,2.62-0.52c0.28-0.05,0.56-0.1,0.84-0.15l0.17-0.03
		c0.81-0.14,1.63-0.28,2.46-0.42c0.39-0.06,0.79-0.12,1.18-0.18c0.79-0.12,1.58-0.23,2.38-0.34c0.44-0.06,0.87-0.12,1.31-0.17
		c0.77-0.1,1.55-0.18,2.34-0.27l0.25-0.03c0.38-0.04,0.76-0.08,1.15-0.12c0.78-0.08,1.56-0.14,2.35-0.21l0.42-0.04
		c0.34-0.03,0.68-0.06,1.02-0.08c0.8-0.06,1.61-0.11,2.41-0.15l0.51-0.03c0.3-0.02,0.61-0.04,0.91-0.05
		c0.87-0.04,1.76-0.07,2.64-0.1l0.53-0.02c0.24-0.01,0.48-0.02,0.72-0.02C97.92,118.02,99.24,118,100.5,118 M100.5,115
		c-1.34,0-2.68,0.02-4.01,0.05c-0.43,0.01-0.85,0.03-1.27,0.04c-0.9,0.03-1.8,0.06-2.69,0.1c-0.49,0.02-0.97,0.06-1.45,0.08
		c-0.82,0.05-1.65,0.1-2.46,0.16c-0.49,0.04-0.98,0.08-1.47,0.12c-0.8,0.07-1.6,0.13-2.39,0.21c-0.48,0.05-0.95,0.1-1.42,0.15
		c-0.8,0.09-1.6,0.18-2.38,0.27c-0.45,0.06-0.89,0.11-1.34,0.17c-0.81,0.11-1.62,0.22-2.43,0.34c-0.4,0.06-0.81,0.12-1.21,0.19
		c-0.85,0.13-1.68,0.28-2.52,0.42c-0.34,0.06-0.69,0.12-1.03,0.18c-0.9,0.17-1.79,0.34-2.68,0.53c-0.26,0.05-0.52,0.11-0.78,0.16
		c-1,0.21-1.98,0.44-2.96,0.67c-0.13,0.03-0.27,0.06-0.4,0.09c-8.03,1.95-15.2,4.55-21.15,7.65c0,0,0,0,0,0c0,0,0,0,0,0
		c1.86,2.93,3.93,5.7,6.21,8.3c0.02,0.03,0.05,0.05,0.07,0.08c1.31,1.49,2.69,2.93,4.12,4.3c0.11,0.11,0.22,0.22,0.34,0.32
		c1.38,1.3,2.81,2.54,4.29,3.72c0.21,0.17,0.43,0.34,0.64,0.51c0.76,0.59,1.53,1.16,2.31,1.72c0.26,0.18,0.51,0.37,0.77,0.55
		c0.43,0.3,0.87,0.59,1.31,0.87c0.34,0.22,0.69,0.44,1.03,0.66c0.6,0.38,1.2,0.74,1.81,1.1c0.46,0.27,0.92,0.54,1.39,0.8
		c0.39,0.22,0.78,0.43,1.18,0.64c0.53,0.28,1.06,0.55,1.59,0.82c0.46,0.23,0.92,0.45,1.38,0.67c0.58,0.27,1.16,0.54,1.75,0.79
		c0.34,0.15,0.68,0.29,1.03,0.44c0.79,0.33,1.59,0.65,2.4,0.95c0.25,0.09,0.51,0.18,0.77,0.27c0.68,0.24,1.36,0.47,2.04,0.69
		c0.29,0.09,0.57,0.19,0.86,0.27c0.87,0.27,1.75,0.52,2.63,0.75c0.24,0.06,0.48,0.12,0.73,0.18c0.77,0.19,1.55,0.37,2.33,0.54
		c0.22,0.05,0.44,0.1,0.66,0.14c0.94,0.19,1.88,0.36,2.83,0.51c0.24,0.04,0.47,0.07,0.71,0.1c0.88,0.13,1.76,0.24,2.65,0.34
		c0.13,0.01,0.26,0.03,0.4,0.05c0.99,0.1,1.99,0.17,3,0.23c0.24,0.01,0.48,0.02,0.71,0.03c1.03,0.05,2.06,0.08,3.09,0.08
		c1.04,0,2.07-0.03,3.09-0.08c0.23-0.01,0.46-0.02,0.69-0.03c1-0.06,2-0.13,2.98-0.23c0.16-0.02,0.31-0.04,0.47-0.05
		c0.88-0.09,1.76-0.21,2.63-0.33c0.21-0.03,0.43-0.06,0.64-0.09c0.95-0.15,1.9-0.32,2.83-0.51c0.24-0.05,0.47-0.1,0.71-0.15
		c0.81-0.17,1.61-0.36,2.41-0.56c0.18-0.05,0.37-0.09,0.56-0.14c0.89-0.23,1.78-0.49,2.66-0.75c0.29-0.09,0.57-0.18,0.85-0.27
		c0.8-0.25,1.59-0.52,2.37-0.8c0.26-0.09,0.51-0.19,0.77-0.29c0.69-0.26,1.38-0.53,2.06-0.81c0.32-0.13,0.64-0.27,0.96-0.4
		c0.77-0.33,1.53-0.67,2.28-1.03c0.33-0.16,0.65-0.32,0.97-0.48c0.51-0.25,1.02-0.51,1.52-0.78c0.35-0.19,0.71-0.37,1.06-0.57
		c0.68-0.37,1.35-0.76,2.01-1.15c0.39-0.23,0.78-0.48,1.17-0.72c0.39-0.24,0.77-0.49,1.15-0.73c0.63-0.41,1.26-0.84,1.88-1.27
		c0.34-0.24,0.69-0.48,1.02-0.73c0.43-0.31,0.85-0.63,1.28-0.96c0.26-0.2,0.51-0.4,0.77-0.6c0.74-0.59,1.47-1.19,2.19-1.81
		c0.2-0.17,0.41-0.35,0.61-0.53c1.4-1.24,2.76-2.53,4.05-3.88c0.13-0.13,0.25-0.27,0.38-0.4c1.32-1.4,2.59-2.86,3.79-4.36
		c0.07-0.09,0.14-0.17,0.2-0.26c0.8-1.01,1.56-2.04,2.3-3.1c0.01-0.02,0.02-0.03,0.04-0.05c0.39-0.56,0.77-1.13,1.15-1.7
		c0,0,0,0,0,0c-0.82-0.45-1.67-0.9-2.53-1.33c-0.24-0.12-0.49-0.23-0.73-0.35c-0.63-0.31-1.27-0.61-1.92-0.9
		c-0.33-0.15-0.66-0.29-1-0.43c-0.59-0.26-1.19-0.51-1.8-0.76c-0.37-0.15-0.75-0.3-1.12-0.44c-0.6-0.23-1.2-0.46-1.81-0.69
		c-0.4-0.14-0.79-0.29-1.2-0.43c-0.62-0.22-1.25-0.43-1.88-0.64c-0.41-0.13-0.82-0.27-1.23-0.4c-0.66-0.21-1.33-0.41-2.01-0.61
		c-0.4-0.12-0.8-0.24-1.21-0.35c-0.75-0.21-1.51-0.41-2.28-0.61c-0.35-0.09-0.69-0.19-1.05-0.27c-1.12-0.28-2.25-0.55-3.4-0.8
		c-0.01,0-0.02,0-0.03-0.01c-1.16-0.26-2.35-0.5-3.54-0.73c-0.37-0.07-0.75-0.13-1.12-0.2c-0.83-0.15-1.66-0.3-2.51-0.44
		c-0.46-0.08-0.93-0.14-1.4-0.22c-0.77-0.12-1.54-0.23-2.31-0.34c-0.51-0.07-1.02-0.13-1.54-0.2c-0.75-0.1-1.51-0.19-2.28-0.27
		c-0.53-0.06-1.06-0.11-1.59-0.17c-0.77-0.08-1.55-0.15-2.32-0.21c-0.53-0.05-1.06-0.09-1.6-0.13c-0.81-0.06-1.62-0.11-2.43-0.16
		c-0.52-0.03-1.03-0.06-1.55-0.09c-0.9-0.04-1.8-0.08-2.71-0.11c-0.44-0.01-0.88-0.04-1.33-0.05C103.24,115.02,101.87,115,100.5,115
		L100.5,115z"/>
</g>
<g>
	<ellipse class="st2" cx="100.5" cy="102" rx="65" ry="63.5"/>
	<path class="st3" d="M100.5,40c35.01,0,63.5,27.81,63.5,62s-28.49,62-63.5,62S37,136.19,37,102S65.49,40,100.5,40 M100.5,37
		C63.77,37,34,66.1,34,102s29.77,65,66.5,65s66.5-29.1,66.5-65S137.23,37,100.5,37L100.5,37z"/>
</g>
<g>
	<ellipse class="st2" cx="102.5" cy="77" rx="29" ry="26.5"/>
	<path class="st3" d="M102.5,52c15.16,0,27.5,11.21,27.5,25s-12.34,25-27.5,25S75,90.79,75,77S87.34,52,102.5,52 M102.5,49
		C85.66,49,72,61.54,72,77s13.66,28,30.5,28S133,92.46,133,77S119.34,49,102.5,49L102.5,49z"/>
</g>
<g>
	<ellipse class="st2" cx="102.5" cy="77" rx="29" ry="26.5"/>
	<path class="st3" d="M102.5,52c15.16,0,27.5,11.21,27.5,25s-12.34,25-27.5,25S75,90.79,75,77S87.34,52,102.5,52 M102.5,49
		C85.66,49,72,61.54,72,77s13.66,28,30.5,28S133,92.46,133,77S119.34,49,102.5,49L102.5,49z"/>
</g>
<g>
	<path class="st2" d="M100.5,165.5c-0.9,0-1.86-0.02-3.03-0.08l-0.7-0.03c-0.99-0.05-1.96-0.13-2.94-0.22l-0.38-0.04
		c-0.88-0.09-1.74-0.2-2.6-0.33l-0.69-0.1c-0.93-0.15-1.85-0.31-2.77-0.5l-0.65-0.14c-0.76-0.16-1.52-0.34-2.27-0.52l-0.71-0.18
		c-0.87-0.23-1.73-0.47-2.58-0.73c-0.21-0.06-0.84-0.27-0.84-0.27c-0.67-0.21-1.33-0.44-1.99-0.67c0,0-0.6-0.21-0.75-0.26
		c-0.79-0.29-1.57-0.61-2.35-0.93c-0.34-0.14-0.67-0.28-1-0.43c-0.57-0.25-1.14-0.51-1.71-0.77c-0.46-0.21-0.91-0.43-1.35-0.65
		c-0.52-0.26-1.04-0.53-1.56-0.8c-0.38-0.2-0.77-0.41-1.15-0.62c-0.46-0.25-0.91-0.52-1.36-0.78c-0.59-0.35-1.18-0.71-1.77-1.08
		c-0.34-0.21-0.68-0.43-1.01-0.65c-0.43-0.28-0.85-0.56-1.28-0.85c-0.18-0.12-0.75-0.54-0.75-0.54c-0.77-0.55-1.52-1.1-2.26-1.68
		l-0.63-0.49c-1.45-1.16-2.86-2.38-4.2-3.64l-0.33-0.32c-1.41-1.35-2.77-2.76-4.03-4.2l-0.07-0.08c-1.86-2.13-3.59-4.39-5.16-6.73
		c5.58-2.74,12.07-5.01,19.33-6.77l0.4-0.09c0.96-0.23,1.94-0.45,2.92-0.66l0.77-0.16c0.87-0.18,1.75-0.36,2.65-0.52l1.02-0.18
		c0.82-0.15,1.65-0.29,2.49-0.42l1.19-0.18c0.79-0.12,1.6-0.23,2.4-0.34c0.44-0.06,0.88-0.12,1.32-0.17
		c0.79-0.1,1.57-0.19,2.36-0.27c0,0,1.01-0.11,1.41-0.15c0.79-0.08,1.58-0.15,2.37-0.21c0,0,1.11-0.09,1.45-0.12
		c0.81-0.06,1.62-0.11,2.44-0.15l0.45-0.03c0.33-0.02,0.65-0.04,0.98-0.06c0.88-0.04,1.77-0.07,2.67-0.1c0,0,1.02-0.04,1.26-0.04
		c1.31-0.03,2.64-0.05,3.97-0.05c1.36,0,2.71,0.02,4.05,0.05l1.32,0.05c0.9,0.03,1.79,0.06,2.68,0.1c0.36,0.02,1.54,0.09,1.54,0.09
		c0.8,0.05,1.61,0.1,2.41,0.16c0.53,0.04,1.06,0.08,1.59,0.13c0.77,0.07,1.54,0.13,2.3,0.21c0.53,0.05,1.05,0.11,1.57,0.17
		c0.76,0.08,1.51,0.17,2.26,0.27c0,0,1.1,0.14,1.52,0.2c0.77,0.11,1.53,0.22,2.29,0.34c0,0,1.04,0.16,1.39,0.21
		c0.84,0.14,1.66,0.28,2.48,0.43l1.11,0.2c1.18,0.23,2.35,0.46,3.5,0.72c1.17,0.26,2.28,0.52,3.38,0.8l1.03,0.27
		c0.75,0.2,1.51,0.39,2.25,0.6c0.31,0.09,1.19,0.35,1.19,0.35c0.67,0.2,1.33,0.39,1.98,0.6c0.41,0.13,0.81,0.26,1.21,0.39
		c0.63,0.21,1.25,0.42,1.86,0.63c0.4,0.14,0.79,0.28,1.18,0.42c0.6,0.22,1.2,0.45,1.78,0.68c0.37,0.15,0.74,0.29,1.11,0.44
		c0.6,0.24,1.18,0.49,1.76,0.75c0,0,0.76,0.33,0.98,0.42c0.64,0.29,1.26,0.59,1.88,0.89l0.72,0.34c0.35,0.17,0.69,0.35,1.03,0.53
		c-0.07,0.1-0.14,0.2-0.21,0.3c-0.74,1.05-1.49,2.07-2.29,3.08l-0.2,0.26c-1.15,1.45-2.4,2.88-3.7,4.26l-0.38,0.39
		c-1.26,1.31-2.59,2.59-3.96,3.79l-0.59,0.51c-0.7,0.6-1.42,1.19-2.14,1.77c0,0-0.53,0.42-0.75,0.59c-0.41,0.32-0.83,0.63-1.25,0.93
		c-0.33,0.24-0.66,0.48-1,0.71c-0.61,0.43-1.22,0.84-1.84,1.25c-0.37,0.24-0.75,0.48-1.12,0.72c-0.38,0.24-0.76,0.47-1.14,0.7
		c-0.65,0.38-1.3,0.76-1.96,1.13c-0.27,0.15-0.54,0.29-0.81,0.43l-0.23,0.12c-0.49,0.26-0.99,0.52-1.49,0.76
		c0,0-0.73,0.36-0.95,0.47c-0.74,0.35-1.48,0.69-2.23,1.01c-0.31,0.13-0.63,0.27-0.94,0.4c-0.67,0.28-1.34,0.54-2.02,0.8l-0.75,0.28
		c-0.77,0.28-1.54,0.54-2.32,0.79c-0.28,0.09-0.56,0.18-0.83,0.26c-0.86,0.26-1.72,0.51-2.6,0.74l-0.55,0.13
		c-0.78,0.2-1.56,0.38-2.36,0.54l-0.69,0.15c-0.91,0.18-1.84,0.35-2.77,0.49l-0.63,0.09c-0.85,0.13-1.71,0.24-2.57,0.33l-0.46,0.05
		c-0.97,0.1-1.94,0.17-2.92,0.22l-0.68,0.03C102.36,165.48,101.4,165.5,100.5,165.5z"/>
	<path class="st3" d="M99.5,127c1.28,0,2.59,0.02,4.02,0.05c0.26,0.01,0.52,0.02,0.78,0.03l0.53,0.02c0.89,0.03,1.78,0.06,2.66,0.1
		c0.37,0.02,0.73,0.04,1.1,0.06l0.42,0.03c0.8,0.05,1.59,0.1,2.38,0.16c0.52,0.04,1.04,0.08,1.57,0.13
		c0.76,0.06,1.52,0.13,2.28,0.21c0.52,0.05,1.04,0.11,1.56,0.16c0.75,0.08,1.49,0.17,2.23,0.27l0.07,0.01
		c0.48,0.06,0.96,0.12,1.43,0.19c0.76,0.1,1.51,0.22,2.26,0.33l0.42,0.06c0.32,0.05,0.64,0.1,0.95,0.15
		c0.83,0.14,1.64,0.28,2.45,0.43l0.47,0.08c0.21,0.04,0.42,0.07,0.63,0.11c1.23,0.24,2.37,0.47,3.43,0.7l0.04,0.01l0.02,0.01
		c1.07,0.24,2.16,0.49,3.31,0.78c0.2,0.05,0.4,0.1,0.59,0.15l0.43,0.11c0.75,0.19,1.49,0.39,2.22,0.59
		c0.28,0.08,0.56,0.16,0.83,0.24l0.35,0.1c0.66,0.19,1.31,0.39,1.95,0.59c0.39,0.12,0.78,0.25,1.2,0.39
		c0.62,0.2,1.22,0.41,1.83,0.62c0.39,0.14,0.78,0.28,1.16,0.42c0.59,0.22,1.18,0.44,1.75,0.66l0.11,0.04
		c0.33,0.13,0.66,0.26,0.98,0.39c0.59,0.24,1.16,0.49,1.73,0.73l0.33,0.14c0.21,0.09,0.43,0.18,0.63,0.28
		c0.63,0.28,1.24,0.57,1.84,0.87l0.17,0.08c-0.46,0.63-0.94,1.26-1.43,1.89l-0.09,0.11l-0.11,0.14c-1.13,1.42-2.35,2.83-3.62,4.17
		l-0.37,0.38c-1.24,1.29-2.54,2.54-3.87,3.71c-0.16,0.14-0.33,0.29-0.49,0.43l-0.09,0.07c-0.67,0.57-1.37,1.15-2.09,1.73l-0.18,0.15
		c-0.18,0.14-0.36,0.29-0.55,0.43c-0.4,0.31-0.81,0.61-1.22,0.91c-0.31,0.23-0.62,0.45-0.93,0.66l-0.05,0.03
		c-0.59,0.42-1.2,0.83-1.79,1.22c-0.36,0.24-0.73,0.47-1.1,0.7c-0.37,0.23-0.74,0.46-1.11,0.69c-0.67,0.4-1.3,0.76-1.92,1.1
		c-0.26,0.14-0.52,0.28-0.78,0.42l-0.24,0.13c-0.48,0.25-0.97,0.5-1.46,0.75l-0.29,0.14c-0.21,0.11-0.43,0.21-0.64,0.32
		c-0.68,0.32-1.4,0.65-2.18,0.99c-0.31,0.13-0.61,0.26-0.92,0.39c-0.68,0.28-1.34,0.54-1.97,0.78l-0.16,0.06
		c-0.19,0.07-0.38,0.14-0.58,0.21c-0.71,0.26-1.45,0.51-2.27,0.77c-0.27,0.09-0.54,0.17-0.82,0.26c-0.93,0.28-1.76,0.52-2.54,0.72
		c-0.09,0.02-0.17,0.04-0.26,0.06l-0.27,0.07c-0.75,0.19-1.52,0.37-2.3,0.53l-0.24,0.05c-0.15,0.03-0.29,0.06-0.44,0.09
		c-0.91,0.18-1.82,0.34-2.71,0.48c-0.12,0.02-0.24,0.04-0.36,0.05l-0.25,0.04c-0.86,0.13-1.7,0.23-2.51,0.32l-0.24,0.03l-0.21,0.02
		c-0.89,0.09-1.83,0.16-2.85,0.22c-0.21,0.01-0.41,0.02-0.66,0.03c-1.14,0.05-2.08,0.08-2.96,0.08c-0.88,0-1.82-0.02-2.96-0.08
		c-0.23-0.01-0.46-0.02-0.68-0.03c-1.05-0.06-1.98-0.13-2.86-0.22l-0.16-0.02l-0.22-0.03c-0.81-0.09-1.64-0.19-2.53-0.32l-0.21-0.03
		c-0.16-0.02-0.31-0.05-0.47-0.07c-0.93-0.15-1.84-0.31-2.71-0.48c-0.12-0.02-0.24-0.05-0.36-0.08l-0.27-0.06
		c-0.73-0.15-1.48-0.33-2.22-0.51l-0.28-0.07c-0.14-0.03-0.28-0.07-0.42-0.1c-0.81-0.21-1.66-0.45-2.52-0.71
		c-0.21-0.06-0.42-0.13-0.62-0.2l-0.2-0.06c-0.64-0.2-1.3-0.43-1.95-0.66l-0.32-0.11c-0.14-0.05-0.27-0.09-0.41-0.14
		c-0.69-0.25-1.44-0.55-2.29-0.9c-0.33-0.14-0.65-0.28-0.98-0.42c-0.56-0.24-1.12-0.5-1.67-0.75c-0.44-0.21-0.88-0.42-1.32-0.64
		c-0.51-0.25-1.02-0.51-1.52-0.78c-0.38-0.2-0.75-0.4-1.13-0.61c-0.45-0.25-0.89-0.51-1.33-0.76c-0.58-0.34-1.16-0.69-1.73-1.05
		c-0.33-0.21-0.66-0.42-0.98-0.63c-0.42-0.27-0.84-0.55-1.25-0.84c-0.16-0.11-0.31-0.22-0.47-0.33l-0.27-0.19
		c-0.77-0.55-1.52-1.1-2.21-1.64c-0.21-0.16-0.41-0.32-0.61-0.48c-1.42-1.13-2.8-2.33-4.1-3.56l-0.24-0.23l-0.08-0.07
		c-1.38-1.32-2.71-2.7-3.96-4.13l-0.05-0.05c-1.44-1.64-2.79-3.37-4.06-5.15c5.12-2.36,10.97-4.34,17.45-5.91l0.19-0.04l0.21-0.05
		c0.97-0.23,1.94-0.45,2.89-0.65l0.47-0.1l0.29-0.06c0.86-0.18,1.73-0.35,2.62-0.52c0.28-0.05,0.56-0.1,0.84-0.15l0.17-0.03
		c0.81-0.14,1.63-0.28,2.46-0.42c0.39-0.06,0.79-0.12,1.18-0.18c0.79-0.12,1.58-0.23,2.38-0.34c0.44-0.06,0.87-0.12,1.31-0.17
		c0.77-0.1,1.55-0.18,2.34-0.27l0.25-0.03c0.38-0.04,0.76-0.08,1.15-0.12c0.78-0.08,1.56-0.14,2.35-0.21l0.42-0.04
		c0.34-0.03,0.68-0.06,1.02-0.08c0.8-0.06,1.61-0.11,2.41-0.15l0.51-0.03c0.3-0.02,0.61-0.04,0.91-0.05
		c0.87-0.04,1.76-0.07,2.64-0.1l0.53-0.02c0.24-0.01,0.48-0.02,0.72-0.02C96.92,127.02,98.24,127,99.5,127 M99.5,124
		c-1.34,0-2.68,0.02-4.01,0.05c-0.43,0.01-0.85,0.03-1.27,0.04c-0.9,0.03-1.8,0.06-2.69,0.1c-0.49,0.02-0.97,0.06-1.45,0.08
		c-0.82,0.05-1.65,0.1-2.46,0.16c-0.49,0.04-0.98,0.08-1.47,0.12c-0.8,0.07-1.6,0.13-2.39,0.21c-0.48,0.05-0.95,0.1-1.42,0.15
		c-0.8,0.09-1.6,0.18-2.38,0.27c-0.45,0.06-0.89,0.11-1.34,0.17c-0.81,0.11-1.62,0.22-2.43,0.34c-0.4,0.06-0.81,0.12-1.21,0.19
		c-0.85,0.13-1.68,0.28-2.52,0.42c-0.34,0.06-0.69,0.12-1.03,0.18c-0.9,0.17-1.79,0.34-2.68,0.53c-0.26,0.05-0.52,0.11-0.78,0.16
		c-1,0.21-1.98,0.44-2.96,0.67c-0.13,0.03-0.27,0.06-0.4,0.09c-8.03,1.95-15.2,4.55-21.15,7.65c0,0,0,0,0,0c0,0,0,0,0,0
		c1.86,2.93,3.93,5.7,6.21,8.3c0.02,0.03,0.05,0.05,0.07,0.08c1.31,1.49,2.69,2.93,4.12,4.3c0.11,0.11,0.22,0.22,0.34,0.32
		c1.38,1.3,2.81,2.54,4.29,3.72c0.21,0.17,0.43,0.34,0.64,0.51c0.76,0.59,1.53,1.16,2.31,1.72c0.26,0.18,0.51,0.37,0.77,0.55
		c0.43,0.3,0.87,0.59,1.31,0.87c0.34,0.22,0.69,0.44,1.03,0.66c0.6,0.38,1.2,0.74,1.81,1.1c0.46,0.27,0.92,0.54,1.39,0.8
		c0.39,0.22,0.78,0.43,1.18,0.64c0.53,0.28,1.06,0.55,1.59,0.82c0.46,0.23,0.92,0.45,1.38,0.67c0.58,0.27,1.16,0.54,1.75,0.79
		c0.34,0.15,0.68,0.29,1.03,0.44c0.79,0.33,1.59,0.65,2.4,0.95c0.25,0.09,0.51,0.18,0.77,0.27c0.68,0.24,1.36,0.47,2.04,0.69
		c0.29,0.09,0.57,0.19,0.86,0.27c0.87,0.27,1.75,0.52,2.63,0.75c0.24,0.06,0.48,0.12,0.73,0.18c0.77,0.19,1.55,0.37,2.33,0.54
		c0.22,0.05,0.44,0.1,0.66,0.14c0.94,0.19,1.88,0.36,2.83,0.51c0.24,0.04,0.47,0.07,0.71,0.1c0.88,0.13,1.76,0.24,2.65,0.34
		c0.13,0.01,0.26,0.03,0.4,0.05c0.99,0.1,1.99,0.17,3,0.23c0.24,0.01,0.48,0.02,0.71,0.03c1.03,0.05,2.06,0.08,3.09,0.08
		c1.04,0,2.07-0.03,3.09-0.08c0.23-0.01,0.46-0.02,0.69-0.03c1-0.06,2-0.13,2.98-0.23c0.16-0.02,0.31-0.04,0.47-0.05
		c0.88-0.09,1.76-0.21,2.63-0.33c0.21-0.03,0.43-0.06,0.64-0.09c0.95-0.15,1.9-0.32,2.83-0.51c0.24-0.05,0.47-0.1,0.71-0.15
		c0.81-0.17,1.61-0.36,2.41-0.56c0.18-0.05,0.37-0.09,0.56-0.14c0.89-0.23,1.78-0.49,2.66-0.75c0.29-0.09,0.57-0.18,0.85-0.27
		c0.8-0.25,1.59-0.52,2.37-0.8c0.26-0.09,0.51-0.19,0.77-0.29c0.69-0.26,1.38-0.53,2.06-0.81c0.32-0.13,0.64-0.27,0.96-0.4
		c0.77-0.33,1.53-0.67,2.28-1.03c0.33-0.16,0.65-0.32,0.97-0.48c0.51-0.25,1.02-0.51,1.52-0.78c0.35-0.19,0.71-0.37,1.06-0.57
		c0.68-0.37,1.35-0.76,2.01-1.15c0.39-0.23,0.78-0.48,1.17-0.72c0.39-0.24,0.77-0.49,1.15-0.73c0.63-0.41,1.26-0.84,1.88-1.27
		c0.34-0.24,0.69-0.48,1.02-0.73c0.43-0.31,0.85-0.63,1.28-0.96c0.26-0.2,0.51-0.4,0.77-0.6c0.74-0.59,1.47-1.19,2.19-1.81
		c0.2-0.17,0.41-0.35,0.61-0.53c1.4-1.24,2.76-2.53,4.05-3.88c0.13-0.13,0.25-0.27,0.38-0.4c1.32-1.4,2.59-2.86,3.79-4.36
		c0.07-0.09,0.14-0.17,0.2-0.26c0.8-1.01,1.56-2.04,2.3-3.1c0.01-0.02,0.02-0.03,0.04-0.05c0.39-0.56,0.77-1.13,1.15-1.7
		c0,0,0,0,0,0c-0.82-0.45-1.67-0.9-2.53-1.33c-0.24-0.12-0.49-0.23-0.73-0.35c-0.63-0.31-1.27-0.61-1.92-0.9
		c-0.33-0.15-0.66-0.29-1-0.43c-0.59-0.26-1.19-0.51-1.8-0.76c-0.37-0.15-0.75-0.3-1.12-0.44c-0.6-0.23-1.2-0.46-1.81-0.69
		c-0.4-0.14-0.79-0.29-1.2-0.43c-0.62-0.22-1.25-0.43-1.88-0.64c-0.41-0.13-0.82-0.27-1.23-0.4c-0.66-0.21-1.33-0.41-2.01-0.61
		c-0.4-0.12-0.8-0.24-1.21-0.35c-0.75-0.21-1.51-0.41-2.28-0.61c-0.35-0.09-0.69-0.19-1.05-0.27c-1.12-0.28-2.25-0.55-3.4-0.8
		c-0.01,0-0.02,0-0.03-0.01c-1.16-0.26-2.35-0.5-3.54-0.73c-0.37-0.07-0.75-0.13-1.12-0.2c-0.83-0.15-1.66-0.3-2.51-0.44
		c-0.46-0.08-0.93-0.14-1.4-0.22c-0.77-0.12-1.54-0.23-2.31-0.34c-0.51-0.07-1.02-0.13-1.54-0.2c-0.75-0.1-1.51-0.19-2.28-0.27
		c-0.53-0.06-1.06-0.11-1.59-0.17c-0.77-0.08-1.55-0.15-2.32-0.21c-0.53-0.05-1.06-0.09-1.6-0.13c-0.81-0.06-1.62-0.11-2.43-0.16
		c-0.52-0.03-1.03-0.06-1.55-0.09c-0.9-0.04-1.8-0.08-2.71-0.11c-0.44-0.01-0.88-0.04-1.33-0.05C102.24,124.02,100.87,124,99.5,124
		L99.5,124z"/>
</g>
</svg>
