<?xml version="1.0" encoding="utf-8"?>
<!-- Generator: Adobe Illustrator 23.0.0, SVG Export Plug-In . SVG Version: 6.00 Build 0)  -->
<svg version="1.1" id="Layer_1" xmlns="http://www.w3.org/2000/svg" xmlns:xlink="http://www.w3.org/1999/xlink" x="0px" y="0px"
	 viewBox="0 0 300 300" style="enable-background:new 0 0 300 300;" xml:space="preserve">
<style type="text/css">
	.st0{fill:#E6E6E6;}
	.st1{fill:#B3B3B3;}
</style>
<g>
	<path class="st0" d="M144.5,250.5c-49.63,0-90-40.37-90-90c0-49.29,39.83-89.46,89-89.99v92.99h90.95
		C232.85,211.7,193.02,250.5,144.5,250.5z"/>
	<path class="st1" d="M141,73.07V161v5h5h85.83c-1.32,21.38-10.3,41.29-25.61,56.53C189.71,238.95,167.79,248,144.5,248
		C96.25,248,57,208.75,57,160.5C57,113.42,94.37,74.91,141,73.07 M144.5,68C93.41,68,52,109.41,52,160.5S93.41,253,144.5,253
		c50.92,0,92.22-41.14,92.49-92H146V68.02C145.5,68.01,145,68,144.5,68L144.5,68z"/>
</g>
<g>
	<path class="st0" d="M153.5,154.5V60.52c49.64,1.03,89.86,42.6,90.98,93.98H153.5z"/>
	<path class="st1" d="M156,63.11c46.31,2.3,83.59,40.9,85.89,88.89H156V63.11 M151.61,58c-0.21,0-0.41,0.01-0.61,0.02V157h95.99
		c0-0.1,0.01-0.2,0.01-0.31C247,102.19,204.29,58,151.61,58L151.61,58z"/>
</g>
<g>
	<rect x="2.5" y="2.5" class="st0" width="295" height="295"/>
	<path class="st0" d="M295,5v290H5V5H295 M300,0H0v300h300V0L300,0z"/>
</g>
<g>
	<path class="st0" d="M145.5,238.5c-49.63,0-90-40.37-90-90c0-49.29,39.83-89.46,89-89.99v92.99h90.95
		C233.85,199.7,194.02,238.5,145.5,238.5z"/>
	<path class="st1" d="M142,61.07V149v5h5h85.83c-1.32,21.38-10.3,41.29-25.61,56.53C190.71,226.95,168.79,236,145.5,236
		C97.25,236,58,196.75,58,148.5C58,101.42,95.37,62.91,142,61.07 M145.5,56C94.41,56,53,97.41,53,148.5S94.41,241,145.5,241
		c50.92,0,92.22-41.14,92.49-92H147V56.02C146.5,56.01,146,56,145.5,56L145.5,56z"/>
</g>
<g>
	<path class="st0" d="M154.5,142.5V48.52c49.64,1.03,89.86,42.6,90.98,93.98H154.5z"/>
	<path class="st1" d="M157,51.11c46.31,2.3,83.59,40.9,85.89,88.89H157V51.11 M152.61,46c-0.21,0-0.41,0.01-0.61,0.02V145h95.99
		c0-0.1,0.01-0.2,0.01-0.31C248,90.19,205.29,46,152.61,46L152.61,46z"/>
</g>
</svg>
