<?xml version="1.0" encoding="utf-8"?>
<!-- Generator: Adobe Illustrator 23.0.0, SVG Export Plug-In . SVG Version: 6.00 Build 0)  -->
<svg version="1.1" id="Layer_1" xmlns="http://www.w3.org/2000/svg" xmlns:xlink="http://www.w3.org/1999/xlink" x="0px" y="0px"
	 viewBox="0 0 100 100" style="enable-background:new 0 0 100 100;" xml:space="preserve">
<style type="text/css">
	.st0{fill:#E6E6E6;}
	.st1{fill:#E6E6E6;stroke:#E6E6E6;stroke-miterlimit:10;}
	.st2{fill:#B3B3B3;}
</style>
<g>
	<path class="st0" d="M44.05,71.8c-0.88,0-1.74-0.34-2.31-0.92c-0.49-0.49-0.75-1.13-0.74-1.85c0-0.36-0.12-0.67-0.35-0.9
		c-0.31-0.31-0.79-0.46-1.46-0.46c-2.46,0-7.35,2.13-8.31,2.62c-0.07-0.12-0.38-0.67-0.63-1.77c-0.46-2.01-0.5-4.88,0.48-6.43
		c0.71-1.11,0.76-2.47,0.13-3.62c-0.69-1.26-2.05-2.04-3.56-2.04c0,0-0.11,0-0.11,0c-1.74,0-2.75-1.08-3.01-2.15
		c-0.23-0.95,0.02-2.23,1.44-2.97c1.3-0.68,2.06-1.91,2.05-3.3c-0.01-1.39-0.8-2.61-2.1-3.26c-1.44-0.73-1.72-2.01-1.49-2.97
		c0.26-1.08,1.27-2.18,2.94-2.18h0c1.59,0,2.96-0.79,3.65-2.07c0.63-1.17,0.56-2.53-0.17-3.64c-0.55-0.83-0.6-1.75-0.15-2.58
		c0.52-0.97,1.59-1.6,2.72-1.6c0.53,0,1.06,0.14,1.55,0.41c0.62,0.34,1.31,0.51,2.01,0.51c1.13,0,2.22-0.45,2.99-1.24
		c0.69-0.71,1.06-1.63,1.03-2.6c-0.02-0.72,0.23-1.37,0.72-1.88c0.57-0.59,1.45-0.94,2.33-0.94c1.09,0,2.03,0.51,2.58,1.41
		c0.72,1.18,2.02,1.88,3.48,1.88c1.49,0,2.8-0.73,3.52-1.94c0.54-0.92,1.5-1.45,2.61-1.45c0.88,0,1.74,0.34,2.31,0.92
		c0.49,0.5,0.75,1.13,0.74,1.85c-0.01,0.96,0.36,1.87,1.05,2.56c0.76,0.77,1.84,1.21,2.96,1.21c0.72,0,1.44-0.19,2.07-0.55
		c0.51-0.29,1.05-0.43,1.6-0.43c1.12,0,2.19,0.62,2.71,1.57c0.45,0.82,0.41,1.74-0.12,2.57c-0.71,1.11-0.76,2.47-0.13,3.62
		c0.69,1.26,2.05,2.04,3.56,2.04c0,0,0.11,0,0.11,0c1.74,0,2.75,1.08,3.01,2.15c0.23,0.95-0.02,2.23-1.44,2.97
		c-1.3,0.68-2.06,1.91-2.05,3.3c0.01,1.39,0.8,2.61,2.1,3.26c1.44,0.73,1.72,2.01,1.49,2.97c-0.26,1.08-1.27,2.18-2.95,2.18l0,0
		c-1.59,0-2.96,0.79-3.65,2.07c-0.63,1.17-0.56,2.53,0.17,3.64c0.55,0.83,0.6,1.75,0.15,2.59c-0.52,0.97-1.59,1.6-2.72,1.6
		c-0.53,0-1.06-0.14-1.55-0.41c-0.62-0.33-1.31-0.51-2.01-0.51c-1.13,0-2.22,0.45-2.99,1.24c-0.69,0.71-1.06,1.63-1.03,2.6
		c0.02,0.72-0.23,1.37-0.72,1.88c-0.57,0.59-1.45,0.94-2.34,0.94c-1.09,0-2.03-0.51-2.58-1.41c-0.72-1.18-2.02-1.88-3.48-1.88
		c-1.49,0-2.8,0.73-3.52,1.94C46.12,71.27,45.16,71.8,44.05,71.8z"/>
	<path d="M55.9,24.38c0.75,0,1.48,0.29,1.95,0.77c0.4,0.4,0.6,0.91,0.59,1.49c-0.01,1.09,0.41,2.13,1.2,2.92
		c0.86,0.87,2.07,1.36,3.32,1.36c0.81,0,1.61-0.21,2.32-0.61c0.43-0.24,0.89-0.37,1.35-0.37c0.93,0,1.84,0.53,2.27,1.31
		c0.26,0.47,0.44,1.2-0.1,2.06c-0.81,1.27-0.86,2.81-0.14,4.13c0.78,1.42,2.31,2.3,4,2.3l0.12,0l0.08,0c1.48,0,2.24,0.95,2.44,1.77
		c0.24,0.99-0.2,1.89-1.19,2.41c-1.46,0.77-2.33,2.17-2.32,3.74c0.01,1.58,0.9,2.96,2.38,3.71c1.18,0.6,1.41,1.63,1.23,2.41
		c-0.2,0.83-0.96,1.79-2.46,1.79v1l-0.06-1c-1.71,0-3.26,0.89-4.03,2.33c-0.72,1.33-0.64,2.89,0.19,4.15
		c0.57,0.86,0.38,1.6,0.13,2.07c-0.43,0.8-1.35,1.33-2.28,1.33c-0.45,0-0.89-0.12-1.31-0.35c-0.69-0.38-1.47-0.57-2.25-0.57
		c-1.27,0-2.49,0.51-3.35,1.39c-0.78,0.81-1.2,1.86-1.17,2.97c0.02,0.59-0.18,1.1-0.58,1.52c-0.48,0.49-1.22,0.79-1.98,0.79
		c-0.54,0-1.53-0.15-2.16-1.17c-0.81-1.33-2.27-2.12-3.9-2.12c-1.66,0-3.14,0.82-3.95,2.19c-0.45,0.77-1.25,1.21-2.18,1.21
		c-0.75,0-1.48-0.29-1.95-0.77c-0.4-0.4-0.6-0.91-0.59-1.49c0-0.5-0.16-0.93-0.49-1.26c-0.41-0.41-1-0.61-1.82-0.61c0,0,0,0,0,0
		c-2.37,0-6.55,1.76-8.09,2.46c-0.59-1.28-1.2-5.31,0.05-7.26c0.81-1.27,0.86-2.81,0.14-4.13c-0.78-1.42-2.31-2.3-4-2.3l-0.12,0
		l-0.08,0c-1.48,0-2.24-0.95-2.44-1.77c-0.24-0.99,0.2-1.89,1.19-2.41c1.46-0.77,2.33-2.17,2.32-3.74c-0.01-1.58-0.9-2.96-2.38-3.71
		c-1.18-0.6-1.41-1.63-1.23-2.41c0.2-0.83,0.96-1.79,2.46-1.79l0.06,0c1.71,0,3.26-0.89,4.03-2.33c0.72-1.33,0.64-2.89-0.2-4.15
		c-0.57-0.86-0.38-1.6-0.13-2.07c0.43-0.8,1.35-1.33,2.28-1.33c0.45,0,0.89,0.12,1.31,0.35c0.69,0.38,1.47,0.57,2.25,0.57
		c1.27,0,2.49-0.51,3.35-1.39c0.78-0.81,1.2-1.86,1.17-2.97c-0.02-0.59,0.18-1.1,0.58-1.52c0.48-0.49,1.22-0.79,1.98-0.79
		c0.54,0,1.53,0.15,2.16,1.17c0.81,1.33,2.27,2.12,3.9,2.12c1.66,0,3.14-0.82,3.95-2.19C54.17,24.82,54.97,24.38,55.9,24.38
		 M55.9,23.38c-1.17,0-2.35,0.53-3.04,1.7l0,0c-0.67,1.13-1.88,1.69-3.09,1.69c-1.19,0-2.38-0.55-3.05-1.64l0,0
		c-0.7-1.14-1.86-1.65-3.01-1.65c-1.82,0-3.61,1.27-3.56,3.33v0c0.05,1.93-1.66,3.33-3.52,3.33c-0.59,0-1.2-0.14-1.77-0.45l0,0
		c-0.6-0.32-1.21-0.47-1.79-0.47c-2.5,0-4.53,2.62-2.99,4.96l0,0c1.43,2.16-0.26,4.94-3,4.94c-0.01,0-0.02,0-0.03,0h0
		c-0.01,0-0.02,0-0.03,0c-3.63,0-4.88,4.48-1.68,6.09h0c2.42,1.22,2.44,4.42,0.05,5.67l0,0c-3.15,1.65-1.87,6.07,1.71,6.07
		c0.03,0,0.07,0,0.1,0h0c0.03,0,0.06,0,0.1,0c2.7,0,4.4,2.72,3.01,4.89l0,0c-1.78,2.79-0.47,8.98,0.58,8.98
		c0.05,0,0.09-0.01,0.14-0.04l0,0c0.61-0.34,5.71-2.61,8.16-2.61c0.8,0,1.32,0.24,1.31,0.86v0c-0.02,2.04,1.76,3.27,3.55,3.27
		c1.17,0,2.35-0.53,3.04-1.7l0,0c0.67-1.13,1.88-1.69,3.09-1.69c1.19,0,2.38,0.55,3.05,1.64l0,0c0.7,1.14,1.86,1.65,3.01,1.65
		c1.82,0,3.61-1.27,3.56-3.33v0c-0.05-1.93,1.66-3.33,3.52-3.33c0.59,0,1.2,0.14,1.77,0.45l0,0c0.6,0.32,1.21,0.47,1.79,0.47
		c2.5,0,4.53-2.62,2.99-4.96l0,0c-1.43-2.16,0.26-4.94,3-4.94c0.01,0,0.02,0,0.03,0h0c0.01,0,0.02,0,0.03,0
		c3.63,0,4.88-4.48,1.68-6.09h0c-2.42-1.22-2.44-4.42-0.05-5.67h0c3.15-1.65,1.87-6.07-1.71-6.07c-0.03,0-0.07,0-0.1,0h0
		c-0.03,0-0.06,0-0.1,0c-2.7,0-4.4-2.72-3.01-4.89l0,0c1.49-2.34-0.54-4.91-3.01-4.91c-0.6,0-1.23,0.15-1.84,0.5l0,0
		c-0.59,0.33-1.21,0.48-1.83,0.48c-1.84,0-3.53-1.36-3.51-3.27v0C59.47,24.61,57.69,23.38,55.9,23.38L55.9,23.38z"/>
</g>
<g>
	
		<rect x="15.04" y="52.05" transform="matrix(0.8347 -0.5507 0.5507 0.8347 -28.5219 28.9697)" class="st0" width="37.93" height="19.89"/>
	<path class="st0" d="M44.21,43.95l10.4,15.77L23.79,80.05l-10.4-15.77L44.21,43.95 M44.5,42.56L12,64l11.5,17.44L56,60L44.5,42.56
		L44.5,42.56z"/>
</g>
<g>
	<path class="st0" d="M32.33,71.56c-0.45,0-0.91-0.08-1.35-0.24c-1.12-0.4-1.98-1.26-2.3-2.29l-0.16-0.52l-5.78,2.4l-2.83-4.08
		l21.47-20.38l8.88,13.07L34.1,66.2l0.48,0.53c0.8,0.88,1.06,1.98,0.71,2.96C34.88,70.82,33.72,71.56,32.33,71.56
		C32.33,71.56,32.33,71.56,32.33,71.56z"/>
	<path d="M41.3,47.21l8.2,12.07l-14.93,6.19l-1.31,0.54l0.96,1.05c0.67,0.74,0.9,1.65,0.61,2.45c-0.34,0.94-1.31,1.55-2.49,1.55
		c-0.4,0-0.79-0.07-1.18-0.21c-0.97-0.35-1.72-1.09-1.99-1.97l-0.32-1.05l-1.01,0.42l-4.9,2.03l-2.35-3.4L41.3,47.21 M41.46,45.67
		L19.26,66.75l3.3,4.77l5.65-2.34c0.35,1.14,1.29,2.14,2.61,2.61c0.51,0.18,1.02,0.27,1.51,0.27c1.55,0,2.94-0.83,3.43-2.21
		c0.43-1.19,0.07-2.49-0.81-3.46l16.07-6.66L41.46,45.67L41.46,45.67z"/>
</g>
<g>
	<polygon class="st0" points="19.91,66.82 41.38,46.44 50.26,59.51 22.74,70.9 	"/>
	<path d="M41.3,47.21l8.2,12.07L22.92,70.29l-2.35-3.4L41.3,47.21 M41.46,45.67L19.26,66.75l3.3,4.77l28.46-11.79L41.46,45.67
		L41.46,45.67z"/>
</g>
<rect x="0.5" y="0.5" class="st1" width="99" height="99"/>
<g>
	<path class="st0" d="M49.05,69.8c-0.88,0-1.74-0.34-2.31-0.92c-0.49-0.49-0.75-1.13-0.74-1.85c0-0.36-0.12-0.67-0.35-0.9
		c-0.31-0.31-0.79-0.46-1.46-0.46c-2.46,0-7.35,2.13-8.31,2.62c-0.07-0.12-0.38-0.67-0.63-1.77c-0.46-2.01-0.5-4.88,0.48-6.43
		c0.71-1.11,0.76-2.47,0.13-3.62c-0.69-1.26-2.05-2.04-3.56-2.04c0,0-0.11,0-0.11,0c-1.74,0-2.75-1.08-3.01-2.15
		c-0.23-0.95,0.02-2.23,1.44-2.97c1.3-0.68,2.06-1.91,2.05-3.3c-0.01-1.39-0.8-2.61-2.1-3.26c-1.44-0.73-1.72-2.01-1.49-2.97
		c0.26-1.08,1.27-2.18,2.94-2.18h0c1.59,0,2.96-0.79,3.65-2.07c0.63-1.17,0.56-2.53-0.17-3.64c-0.55-0.83-0.6-1.75-0.15-2.58
		c0.52-0.97,1.59-1.6,2.72-1.6c0.53,0,1.06,0.14,1.55,0.41c0.62,0.34,1.31,0.51,2.01,0.51c1.13,0,2.22-0.45,2.99-1.24
		c0.69-0.71,1.06-1.63,1.03-2.6c-0.02-0.72,0.23-1.37,0.72-1.88c0.57-0.59,1.45-0.94,2.33-0.94c1.09,0,2.03,0.51,2.58,1.41
		c0.72,1.18,2.02,1.88,3.48,1.88c1.49,0,2.8-0.73,3.52-1.94c0.54-0.92,1.5-1.45,2.61-1.45c0.88,0,1.74,0.34,2.31,0.92
		c0.49,0.5,0.75,1.13,0.74,1.85c-0.01,0.96,0.36,1.87,1.05,2.56c0.76,0.77,1.84,1.21,2.96,1.21c0.72,0,1.44-0.19,2.07-0.55
		c0.51-0.29,1.05-0.43,1.6-0.43c1.12,0,2.19,0.62,2.71,1.57c0.45,0.82,0.41,1.74-0.12,2.57c-0.71,1.11-0.76,2.47-0.13,3.62
		c0.69,1.26,2.05,2.04,3.56,2.04c0,0,0.11,0,0.11,0c1.74,0,2.75,1.08,3.01,2.15c0.23,0.95-0.02,2.23-1.44,2.97
		c-1.3,0.68-2.06,1.91-2.05,3.3c0.01,1.39,0.8,2.61,2.1,3.26c1.44,0.73,1.72,2.01,1.49,2.97c-0.26,1.08-1.27,2.18-2.95,2.18l0,0
		c-1.59,0-2.96,0.79-3.65,2.07c-0.63,1.17-0.56,2.53,0.17,3.64c0.55,0.83,0.6,1.75,0.15,2.59c-0.52,0.97-1.59,1.6-2.72,1.6
		c-0.53,0-1.06-0.14-1.55-0.41c-0.62-0.33-1.31-0.51-2.01-0.51c-1.13,0-2.22,0.45-2.99,1.24c-0.69,0.71-1.06,1.63-1.03,2.6
		c0.02,0.72-0.23,1.37-0.72,1.88c-0.57,0.59-1.45,0.94-2.34,0.94c-1.09,0-2.03-0.51-2.58-1.41c-0.72-1.18-2.02-1.88-3.48-1.88
		c-1.49,0-2.8,0.73-3.52,1.94C51.12,69.27,50.16,69.8,49.05,69.8z"/>
	<path class="st2" d="M60.9,22.38c0.75,0,1.48,0.29,1.95,0.77c0.4,0.4,0.6,0.91,0.59,1.49c-0.01,1.09,0.41,2.13,1.2,2.92
		c0.86,0.87,2.07,1.36,3.32,1.36c0.81,0,1.61-0.21,2.32-0.61c0.43-0.24,0.89-0.37,1.35-0.37c0.93,0,1.84,0.53,2.27,1.31
		c0.26,0.47,0.44,1.2-0.1,2.06c-0.81,1.27-0.86,2.81-0.14,4.13c0.78,1.42,2.31,2.3,4,2.3l0.12,0l0.08,0c1.48,0,2.24,0.95,2.44,1.77
		c0.24,0.99-0.2,1.89-1.19,2.41c-1.46,0.77-2.33,2.17-2.32,3.74c0.01,1.58,0.9,2.96,2.38,3.71c1.18,0.6,1.41,1.63,1.23,2.41
		c-0.2,0.83-0.96,1.79-2.46,1.79v1l-0.06-1c-1.71,0-3.26,0.89-4.03,2.33c-0.72,1.33-0.64,2.89,0.19,4.15
		c0.57,0.86,0.38,1.6,0.13,2.07c-0.43,0.8-1.35,1.33-2.28,1.33c-0.45,0-0.89-0.12-1.31-0.35c-0.69-0.38-1.47-0.57-2.25-0.57
		c-1.27,0-2.49,0.51-3.35,1.39c-0.78,0.81-1.2,1.86-1.17,2.97c0.02,0.59-0.18,1.1-0.58,1.52c-0.48,0.49-1.22,0.79-1.98,0.79
		c-0.54,0-1.53-0.15-2.16-1.17c-0.81-1.33-2.27-2.12-3.9-2.12c-1.66,0-3.14,0.82-3.95,2.19c-0.45,0.77-1.25,1.21-2.18,1.21
		c-0.75,0-1.48-0.29-1.95-0.77c-0.4-0.4-0.6-0.91-0.59-1.49c0-0.5-0.16-0.93-0.49-1.26c-0.41-0.41-1-0.61-1.82-0.61c0,0,0,0,0,0
		c-2.37,0-6.55,1.76-8.09,2.46c-0.59-1.28-1.2-5.31,0.05-7.26c0.81-1.27,0.86-2.81,0.14-4.13c-0.78-1.42-2.31-2.3-4-2.3l-0.12,0
		l-0.08,0c-1.48,0-2.24-0.95-2.44-1.77c-0.24-0.99,0.2-1.89,1.19-2.41c1.46-0.77,2.33-2.17,2.32-3.74c-0.01-1.58-0.9-2.96-2.38-3.71
		c-1.18-0.6-1.41-1.63-1.23-2.41c0.2-0.83,0.96-1.79,2.46-1.79l0.06,0c1.71,0,3.26-0.89,4.03-2.33c0.72-1.33,0.64-2.89-0.2-4.15
		c-0.57-0.86-0.38-1.6-0.13-2.07c0.43-0.8,1.35-1.33,2.28-1.33c0.45,0,0.89,0.12,1.31,0.35c0.69,0.38,1.47,0.57,2.25,0.57
		c1.27,0,2.49-0.51,3.35-1.39c0.78-0.81,1.2-1.86,1.17-2.97c-0.02-0.59,0.18-1.1,0.58-1.52c0.48-0.49,1.22-0.79,1.98-0.79
		c0.54,0,1.53,0.15,2.16,1.17c0.81,1.33,2.27,2.12,3.9,2.12c1.66,0,3.14-0.82,3.95-2.19C59.17,22.82,59.97,22.38,60.9,22.38
		 M60.9,21.38c-1.17,0-2.35,0.53-3.04,1.7l0,0c-0.67,1.13-1.88,1.69-3.09,1.69c-1.19,0-2.38-0.55-3.05-1.64l0,0
		c-0.7-1.14-1.86-1.65-3.01-1.65c-1.82,0-3.61,1.27-3.56,3.33v0c0.05,1.93-1.66,3.33-3.52,3.33c-0.59,0-1.2-0.14-1.77-0.45l0,0
		c-0.6-0.32-1.21-0.47-1.79-0.47c-2.5,0-4.53,2.62-2.99,4.96l0,0c1.43,2.16-0.26,4.94-3,4.94c-0.01,0-0.02,0-0.03,0h0
		c-0.01,0-0.02,0-0.03,0c-3.63,0-4.88,4.48-1.68,6.09h0c2.42,1.22,2.44,4.42,0.05,5.67l0,0c-3.15,1.65-1.87,6.07,1.71,6.07
		c0.03,0,0.07,0,0.1,0h0c0.03,0,0.06,0,0.1,0c2.7,0,4.4,2.72,3.01,4.89l0,0c-1.78,2.79-0.47,8.98,0.58,8.98
		c0.05,0,0.09-0.01,0.14-0.04v0c0.61-0.34,5.71-2.61,8.16-2.61c0.8,0,1.32,0.24,1.31,0.86v0c-0.02,2.04,1.76,3.27,3.55,3.27
		c1.17,0,2.35-0.53,3.04-1.7l0,0c0.67-1.13,1.88-1.69,3.09-1.69c1.19,0,2.38,0.55,3.05,1.64l0,0c0.7,1.14,1.86,1.65,3.01,1.65
		c1.82,0,3.61-1.27,3.56-3.33v0c-0.05-1.93,1.66-3.33,3.52-3.33c0.59,0,1.2,0.14,1.77,0.45l0,0c0.6,0.32,1.21,0.47,1.79,0.47
		c2.5,0,4.53-2.62,2.99-4.96l0,0c-1.43-2.16,0.26-4.94,3-4.94c0.01,0,0.02,0,0.03,0h0c0.01,0,0.02,0,0.03,0
		c3.63,0,4.88-4.48,1.68-6.09h0c-2.42-1.22-2.44-4.42-0.05-5.67h0c3.15-1.65,1.87-6.07-1.71-6.07c-0.03,0-0.07,0-0.1,0h0
		c-0.03,0-0.06,0-0.1,0c-2.7,0-4.4-2.72-3.01-4.89l0,0c1.49-2.34-0.54-4.91-3.01-4.91c-0.6,0-1.23,0.15-1.84,0.5l0,0
		c-0.59,0.33-1.21,0.48-1.83,0.48c-1.84,0-3.53-1.36-3.51-3.27v0C64.47,22.61,62.69,21.38,60.9,21.38L60.9,21.38z"/>
</g>
<g>
	
		<rect x="25.37" y="51.43" transform="matrix(0.8347 -0.5507 0.5507 0.8347 -25.7982 32.1835)" class="st0" width="30.7" height="15.29"/>
	<path class="st0" d="M49.18,44.93l7.87,11.93L32.25,73.21l-7.87-11.93L49.18,44.93 M49.46,43.54L23,61l8.97,13.6l26.46-17.46
		L49.46,43.54L49.46,43.54z"/>
</g>
<g>
	<path class="st0" d="M37.33,69.56c-0.45,0-0.91-0.08-1.35-0.24c-1.12-0.4-1.98-1.26-2.3-2.29l-0.16-0.52l-5.78,2.4l-2.83-4.08
		l21.47-20.38l8.88,13.07L39.1,64.2l0.48,0.53c0.8,0.88,1.06,1.98,0.71,2.96C39.88,68.82,38.72,69.56,37.33,69.56
		C37.33,69.56,37.33,69.56,37.33,69.56z"/>
	<path class="st2" d="M46.3,45.21l8.2,12.07l-14.93,6.19l-1.31,0.54l0.96,1.05c0.67,0.74,0.9,1.65,0.61,2.45
		c-0.34,0.94-1.31,1.55-2.49,1.55c-0.4,0-0.79-0.07-1.18-0.21c-0.97-0.35-1.72-1.09-1.99-1.97l-0.32-1.05l-1.01,0.42l-4.9,2.03
		l-2.35-3.4L46.3,45.21 M46.46,43.67L24.26,64.75l3.3,4.77l5.65-2.34c0.35,1.14,1.29,2.14,2.61,2.61c0.51,0.18,1.02,0.27,1.51,0.27
		c1.55,0,2.94-0.83,3.43-2.21c0.43-1.19,0.07-2.49-0.81-3.46l16.07-6.66L46.46,43.67L46.46,43.67z"/>
</g>
<g>
	<polygon class="st0" points="24.91,64.82 46.38,44.44 55.26,57.51 27.74,68.9 	"/>
	<path class="st2" d="M46.3,45.21l8.2,12.07L27.92,68.29l-2.35-3.4L46.3,45.21 M46.46,43.67L24.26,64.75l3.3,4.77l28.46-11.79
		L46.46,43.67L46.46,43.67z"/>
</g>
</svg>
